<svg aria-hidden="true" style="position: absolute; width: 0; height: 0; overflow: hidden;" version="1.1" xmlns="http://www.w3.org/2000/svg" xmlns:xlink="http://www.w3.org/1999/xlink">
<defs>
<symbol id="icon-Arrow-icon" viewBox="0 0 32 32">
<path fill="none" stroke="#040404" style="stroke: var(--color1, #040404)" stroke-linejoin="miter" stroke-linecap="butt" stroke-miterlimit="4" stroke-width="1.0667" d="M2.677 8.308l13.323-7.692 13.323 7.692v15.384l-13.323 7.692-13.323-7.692v-15.384z"></path>
<path d="M15.623 21.71c0.208 0.208 0.546 0.208 0.754 0l3.394-3.394c0.208-0.208 0.208-0.546 0-0.754s-0.546-0.208-0.754 0l-3.017 3.017-3.017-3.017c-0.208-0.208-0.546-0.208-0.754 0s-0.208 0.546 0 0.754l3.394 3.394zM15.467 10.667v10.667h1.067v-10.667h-1.067z"></path>
</symbol>
<symbol id="icon-FACEBOOK" viewBox="0 0 32 32">
<path fill="#fff" style="fill: var(--color2, #fff)" d="M16 0c-8.822 0-16 7.176-16 15.999s7.178 15.999 16 15.999c8.822 0 16-7.176 16-15.999s-7.178-15.999-16-15.999zM16 30.932c-8.234 0-14.932-6.699-14.932-14.933s6.698-14.933 14.932-14.933c8.234 0 14.932 6.699 14.932 14.933s-6.698 14.933-14.932 14.933z"></path>
<path fill="#fff" style="fill: var(--color2, #fff)" d="M19.492 7.019h-2.662c-3.391-0.034-3.824 2.064-3.824 4.335v1.651h-1.497c-0.068-0.009-0.136-0.002-0.201 0.020s-0.123 0.058-0.172 0.107c-0.048 0.048-0.085 0.107-0.107 0.172s-0.029 0.133-0.020 0.201v2.994c-0.009 0.068-0.002 0.136 0.020 0.201s0.058 0.123 0.107 0.172c0.048 0.048 0.107 0.085 0.172 0.107s0.133 0.029 0.201 0.020h1.497v7.484c-0.008 0.068-0.001 0.137 0.021 0.201s0.059 0.123 0.108 0.171c0.048 0.048 0.107 0.085 0.172 0.107s0.134 0.029 0.201 0.020h3.048c0.294 0.034 0.533-0.204 0.439-0.499l0.002-7.484h2.495c0.068 0.009 0.136 0.002 0.201-0.020s0.123-0.058 0.172-0.107c0.048-0.048 0.085-0.107 0.107-0.172s0.029-0.133 0.020-0.201v-2.994c0.009-0.068 0.002-0.136-0.020-0.201s-0.058-0.123-0.107-0.172c-0.048-0.048-0.107-0.085-0.172-0.107s-0.133-0.029-0.201-0.020h-2.498l0.003-1.497c0.097-0.638 0.097-0.534 0.689-0.499h1.785c0.139-0.031 0.286-0.014 0.39-0.115s0.164-0.238 0.129-0.384v-2.993c0.009-0.068 0.003-0.136-0.019-0.201s-0.058-0.123-0.106-0.172c-0.048-0.048-0.107-0.085-0.172-0.107s-0.133-0.029-0.201-0.019v0zM18.958 9.956l-1.251-0.048c-1.55 0-1.679 0.841-1.679 1.702l-0.004 1.892c-0 0.070 0.014 0.14 0.040 0.204s0.066 0.124 0.115 0.173 0.108 0.089 0.173 0.116c0.065 0.027 0.134 0.041 0.204 0.041h2.437v1.928h-2.435c-0.141 0-0.277 0.056-0.377 0.156s-0.156 0.235-0.157 0.377l-0.001 7.485h-2.020v-7.484c0-0.294-0.201-0.533-0.496-0.533h-1.5v-1.928h1.5c0.070 0 0.139-0.014 0.204-0.040s0.124-0.066 0.173-0.115c0.1-0.101 0.118-0.236 0.118-0.378v-2.15c0-2.237 0.452-3.303 2.826-3.303h2.128v1.906h0.001z"></path>
</symbol>
<symbol id="icon-INST" viewBox="0 0 32 32">
<path fill="none" stroke="#fff" style="stroke: var(--color2, #fff)" stroke-linejoin="miter" stroke-linecap="butt" stroke-miterlimit="10" stroke-width="1" d="M22.918 1h-13.835c-4.464 0-8.082 3.619-8.082 8.082v13.835c0 4.464 3.619 8.082 8.083 8.082h13.834c4.464 0 8.083-3.619 8.083-8.083v-13.835c0-4.464-3.619-8.082-8.083-8.082h0.001z"></path>
<path fill="none" stroke="#fff" style="stroke: var(--color2, #fff)" stroke-linejoin="miter" stroke-linecap="butt" stroke-miterlimit="10" stroke-width="1" d="M16 23.242c3.999 0 7.241-3.242 7.241-7.242s-3.242-7.242-7.242-7.242c-3.999 0-7.242 3.242-7.242 7.242s3.242 7.242 7.242 7.242z"></path>
<path fill="#fff" style="fill: var(--color2, #fff)" d="M24.524 8.221c0.709 0 1.283-0.574 1.283-1.283s-0.574-1.283-1.283-1.283c-0.709 0-1.283 0.574-1.283 1.283s0.574 1.283 1.283 1.283z"></path>
</symbol>
<symbol id="icon-Logo-lamba" viewBox="0 0 28 32">
<path fill="#f9ce5c" style="fill: var(--color3, #f9ce5c)" d="M13.237 29.3c-0.414-0.234-1.595-1.147-2.533-1.958-1.557-1.347-2.923-2.83-4.144-4.501-2.629-3.597-4.255-7.782-4.966-12.782-0.339-2.386-0.471-5.718-0.255-6.461 0.137-0.471 0.447-0.909 0.84-1.185 0.425-0.298 1.78-0.836 2.997-1.188 2.577-0.746 5.424-1.103 8.802-1.105 4.306-0.002 7.831 0.576 10.804 1.771 1.061 0.427 1.454 0.733 1.761 1.372l0.201 0.42-0.005 1.837c-0.013 5.106-1.159 10.069-3.248 14.072-0.532 1.020-1.791 2.994-2.414 3.785-1.152 1.464-2.485 2.868-3.807 4.013-0.893 0.773-2.214 1.781-2.58 1.968-0.45 0.23-0.98 0.209-1.452-0.057zM14.13 29.169c-0.069-0.018-0.182-0.018-0.251 0s-0.013 0.034 0.126 0.034c0.138 0 0.195-0.015 0.126-0.034zM11.277 27.355c0-0.015-0.056-0.073-0.126-0.129-0.114-0.091-0.116-0.089-0.027 0.028 0.094 0.122 0.153 0.161 0.153 0.101zM10.847 26.991c0-0.013-0.089-0.104-0.197-0.202l-0.197-0.178 0.174 0.202c0.163 0.189 0.221 0.236 0.221 0.178zM9.842 26.023c-0.254-0.263-0.478-0.478-0.498-0.478s0.172 0.215 0.426 0.478 0.478 0.478 0.498 0.478c0.020 0-0.172-0.215-0.426-0.478zM8.766 24.921c-0.254-0.263-0.478-0.478-0.498-0.478s0.172 0.215 0.426 0.478c0.254 0.263 0.479 0.478 0.498 0.478s-0.172-0.215-0.427-0.478l0-0zM8.12 24.199c0-0.013-0.089-0.104-0.197-0.202l-0.197-0.178 0.174 0.202c0.163 0.189 0.221 0.236 0.221 0.178zM7.689 23.683c0-0.014-0.073-0.088-0.161-0.165l-0.162-0.14 0.137 0.165c0.129 0.155 0.186 0.199 0.186 0.14zM7.402 23.315c0-0.014-0.073-0.088-0.161-0.165l-0.161-0.14 0.137 0.165c0.128 0.155 0.186 0.199 0.186 0.14h-0zM7.115 22.946c0-0.015-0.056-0.073-0.126-0.129-0.114-0.091-0.116-0.089-0.027 0.028 0.094 0.122 0.153 0.161 0.153 0.101zM6.9 22.652c0-0.015-0.056-0.073-0.126-0.129-0.114-0.091-0.116-0.089-0.027 0.028 0.094 0.122 0.153 0.161 0.153 0.101zM6.685 22.358c0-0.015-0.057-0.073-0.126-0.129-0.114-0.091-0.116-0.089-0.027 0.028 0.094 0.122 0.153 0.161 0.153 0.101zM5.68 20.842c-0.042-0.081-0.093-0.147-0.113-0.147s-0.001 0.066 0.041 0.147c0.042 0.081 0.093 0.147 0.113 0.147s0.001-0.066-0.041-0.147v0zM5.465 20.475c-0.042-0.081-0.093-0.147-0.113-0.147s-0.001 0.066 0.041 0.147c0.042 0.081 0.093 0.147 0.113 0.147s0.001-0.066-0.041-0.147zM5.25 20.107c-0.042-0.081-0.093-0.147-0.113-0.147s-0.001 0.066 0.041 0.147c0.042 0.081 0.093 0.147 0.113 0.147s0.001-0.066-0.041-0.147zM4.588 18.824c-0.205-0.423-0.385-0.757-0.399-0.743-0.032 0.032 0.69 1.511 0.737 1.511 0.019 0-0.133-0.346-0.338-0.769v0zM3.967 17.486c-0.085-0.149-0.105-0.101-0.036 0.084 0.025 0.066 0.060 0.104 0.078 0.085s-0.001-0.095-0.043-0.169v-0zM10.86 4.772c-0.052-0.021-0.114-0.019-0.137 0.006s0.018 0.042 0.094 0.039c0.084-0.004 0.101-0.021 0.043-0.044zM1.833 3.385c0.024-0.065 0.012-0.095-0.028-0.069-0.039 0.025-0.071 0.076-0.071 0.114 0 0.106 0.051 0.082 0.099-0.045h0zM26.276 3.434c0-0.036-0.067-0.143-0.149-0.239l-0.149-0.173 0.128 0.239c0.133 0.248 0.169 0.285 0.169 0.173zM9.282 2.347c-0.052-0.021-0.114-0.019-0.137 0.006s0.018 0.042 0.094 0.039c0.084-0.004 0.101-0.021 0.043-0.044zM12.39 2.25c0.071-0.081 0.114-0.147 0.094-0.147s-0.094 0.066-0.166 0.147c-0.071 0.081-0.114 0.147-0.094 0.147s0.094-0.066 0.166-0.147zM10.573 2.2c-0.052-0.021-0.114-0.019-0.137 0.006s0.019 0.042 0.094 0.039c0.084-0.004 0.101-0.021 0.043-0.044zM19.185 0.803c-0.052-0.021-0.114-0.019-0.138 0.006s0.019 0.042 0.094 0.038c0.084-0.003 0.101-0.021 0.043-0.044zM18.611 0.73c-0.052-0.021-0.114-0.019-0.138 0.006s0.019 0.042 0.094 0.039c0.084-0.004 0.101-0.021 0.043-0.044zM18.041 0.658c-0.049-0.020-0.13-0.020-0.179 0s-0.009 0.037 0.090 0.037c0.099 0 0.139-0.017 0.090-0.037zM10.932 0.583c-0.052-0.021-0.114-0.019-0.138 0.006s0.018 0.042 0.094 0.039c0.084-0.004 0.101-0.021 0.043-0.044zM17.214 0.582c-0.070-0.019-0.167-0.017-0.215 0.003s0.009 0.035 0.127 0.034 0.158-0.018 0.088-0.037zM12.299 0.506c-0.129-0.016-0.323-0.016-0.431 0.001s-0.002 0.030 0.235 0.030c0.237-0 0.325-0.014 0.196-0.030zM16.102 0.506c-0.129-0.016-0.323-0.016-0.431 0.001s-0.002 0.030 0.235 0.030c0.237-0 0.325-0.014 0.196-0.030z"></path>
<path fill="#f9ce5c" style="fill: var(--color3, #f9ce5c)" d="M13.33 29.329c-1.285-0.691-4.287-3.425-5.848-5.327-3.973-4.84-5.955-10.688-6.225-18.363-0.067-1.902 0.057-2.395 0.762-3.044 0.901-0.83 4.449-1.861 7.607-2.212 5.865-0.651 11.495-0.040 15.516 1.685 1.124 0.482 1.56 1.124 1.619 2.382 0.039 0.826-0.089 3.294-0.238 4.621-0.923 8.17-4.261 14.354-10.362 19.197-1.279 1.015-1.583 1.195-2.073 1.225-0.33 0.020-0.475-0.011-0.759-0.164h0zM14.987 28.78c2.321-1.613 4.712-3.999 6.443-6.431 2.291-3.217 3.801-7.031 4.555-11.502 0.442-2.622 0.629-6.401 0.363-7.312-0.157-0.536-0.641-0.921-1.694-1.345-3.068-1.236-7.265-1.873-11.546-1.752-3.893 0.11-7.037 0.675-9.734 1.748-0.771 0.307-0.967 0.419-1.302 0.745-0.386 0.376-0.396 0.396-0.484 0.975-0.104 0.683-0.008 3.317 0.184 5.031 0.931 8.32 4.332 14.525 10.624 19.381 0.987 0.761 1.238 0.901 1.619 0.901 0.298 0 0.42-0.055 0.973-0.439zM13.285 28.841c-0.334-0.208-1.277-0.94-2.008-1.559-3.906-3.307-6.598-7.331-8.144-12.177-0.595-1.864-1.042-4.055-1.291-6.319-0.12-1.096-0.262-4.239-0.207-4.589 0.087-0.555 0.090-0.56 0.251-0.473 0.228 0.125 0.33-0.023 0.178-0.259-0.093-0.146-0.103-0.222-0.043-0.337 0.393-0.752 3.988-1.902 7.21-2.306 1.557-0.195 2.779-0.263 4.78-0.263 3.864-0 6.779 0.413 9.573 1.356 1.262 0.426 2.023 0.768 2.227 0.998 0.127 0.144 0.127 0.159 0.007 0.368-0.157 0.272-0.105 0.364 0.209 0.364 0.26 0 0.255-0.008 0.351 0.577 0.059 0.361-0.086 3.562-0.213 4.714-0.588 5.311-2.236 9.837-4.943 13.572-1.595 2.201-4.045 4.631-6.205 6.154l-0.514 0.362-0.115-0.169c-0.098-0.143-0.159-0.163-0.408-0.129-0.161 0.022-0.329 0.090-0.372 0.151-0.070 0.098-0.109 0.093-0.322-0.040h0zM11.739 19.698c0.126-0.129 0.151-0.325 0.041-0.325-0.019 0-0.037 0.008-0.051 0.021s-0.021 0.032-0.021 0.051c0 0.040-0.081 0.093-0.179 0.118-0.18 0.046-0.221 0.11-0.132 0.202 0.081 0.083 0.223 0.055 0.342-0.066zM9.842 18.743c0-0.018-0.032-0.032-0.072-0.032s-0.072 0.035-0.072 0.078c0 0.043 0.032 0.057 0.072 0.032s0.072-0.060 0.072-0.078zM14.857 18.12c-0.12-0.201-0.231-0.365-0.245-0.365s0.061 0.177 0.168 0.393c0.106 0.216 0.216 0.38 0.245 0.365s-0.047-0.192-0.168-0.393zM16.050 16.874c0.025-0.042-0.025-0.066-0.119-0.055-0.129 0.014-0.173-0.028-0.211-0.202-0.045-0.206-0.049-0.208-0.056-0.033-0.013 0.284 0.264 0.492 0.386 0.29h0zM14.428 15.744c0.323-0.062 0.437-0.169 0.437-0.409 0-0.215-0.209-0.577-0.213-0.369-0.001 0.062-0.145 0.257-0.319 0.432s-0.333 0.383-0.354 0.463c-0.033 0.129-0.024 0.133 0.084 0.038 0.066-0.059 0.231-0.128 0.365-0.154v-0zM16.73 15.626c-0.475-0.063-0.64-0.146-0.888-0.447-0.308-0.375-0.223-0.805 0.195-0.991l0.228-0.101-0.256-0.003c-0.752-0.008-0.765 1.056-0.017 1.46 0.191 0.103 0.401 0.145 0.703 0.141l0.431-0.006-0.396-0.052zM18.735 14.926c-0.003-0.081-0.022-0.106-0.042-0.055s-0.098 0.092-0.174 0.092-0.138 0.025-0.138 0.055c0 0.030 0.081 0.055 0.179 0.055 0.133 0 0.178-0.038 0.174-0.147zM11.095 14.501c0.12-0.188 0.294-0.364 0.386-0.39 0.196-0.056 0.681 0.086 0.962 0.283 0.282 0.198 0.648 0.245 0.766 0.099 0.052-0.065 0.18-0.119 0.284-0.12 0.181-0.002 0.183-0.007 0.049-0.11-0.086-0.067-0.304-0.108-0.574-0.109-0.528-0.001-0.758-0.11-0.905-0.427l-0.111-0.241-0.136 0.154c-0.193 0.218-0.421 0.165-0.468-0.11l-0.038-0.22-0.222 0.331c-0.314 0.469-0.457 0.774-0.457 0.976 0 0.388 0.169 0.346 0.463-0.116h0zM15.422 13.645c0.073-0.018-0.009-0.504-0.124-0.736-0.108-0.217-0.198-0.296-0.377-0.332-0.706-0.143-0.88-0.361-0.815-1.021 0.050-0.502 0.045-0.514-0.339-0.807-0.151-0.115-0.309-0.288-0.352-0.385-0.103-0.231-0.206-0.222-0.7 0.055-0.579 0.326-0.632 0.439-0.369 0.781 0.117 0.152 0.232 0.413 0.259 0.586 0.027 0.174 0.088 0.312 0.139 0.312 0.133 0 0.256 0.331 0.256 0.684 0 0.261 0.050 0.368 0.315 0.679l0.315 0.369 0.887-0.091c0.488-0.050 0.895-0.092 0.905-0.095zM16.979 13.086c-0.097-0.265-0.275-0.868-0.394-1.341-0.126-0.5-0.354-1.145-0.544-1.54-0.31-0.645-0.4-0.76-0.485-0.618-0.047 0.078 0.329 1.028 0.6 1.514 0.114 0.205 0.293 0.719 0.397 1.144 0.109 0.444 0.268 0.889 0.374 1.047 0.102 0.152 0.195 0.275 0.208 0.275s-0.057-0.217-0.154-0.481h0zM15.278 9.281c-0.372-0.312-0.183-0.541 0.271-0.329 0.145 0.068 0.181 0.128 0.156 0.263-0.021 0.113-0.008 0.15 0.037 0.104 0.129-0.132 0.022-0.343-0.239-0.474-0.47-0.235-0.711 0.042-0.343 0.394 0.123 0.117 0.244 0.212 0.269 0.211s-0.043-0.077-0.151-0.168zM18.278 8.829c0.057-0.14 0.104-0.33 0.104-0.423-0-0.225-0.24-0.615-0.444-0.724l-0.165-0.088 0.152 0.175c0.334 0.384 0.396 0.718 0.204 1.098-0.068 0.134-0.080 0.217-0.032 0.217 0.043 0 0.124-0.115 0.181-0.255zM13.013 7.098c-0.318-0.199-0.296-0.473 0.058-0.718 0.201-0.139 0.326-0.168 0.628-0.149 0.257 0.016 0.377-0.004 0.377-0.064 0-0.048 0.153-0.137 0.341-0.198l0.341-0.111-0.431 0.039c-0.659 0.059-1.127 0.219-1.432 0.489-0.234 0.207-0.269 0.276-0.229 0.441 0.026 0.108 0.136 0.245 0.245 0.305 0.294 0.164 0.375 0.137 0.102-0.034zM3.589 5.281c-0.024-1.443-0.023-1.452 0.137-1.524 0.239-0.108 0.194-0.189-0.055-0.1l-0.215 0.077v1.499c0 1.038 0.024 1.499 0.079 1.499s0.071-0.433 0.055-1.451v0zM15.428 6.668c0.074-0.048 0.066-0.070-0.038-0.098-0.074-0.020-0.175 0.009-0.224 0.063-0.074 0.081-0.067 0.099 0.038 0.098 0.071-0.001 0.171-0.029 0.224-0.063zM24.321 3.727c0.11 0.042 0.165 0.045 0.124 0.006s-0.144-0.092-0.233-0.12l-0.162-0.050 0.016 1.53 0.016 1.53 0.021-1.486 0.021-1.486 0.196 0.076zM4.855 5.906c0.047-0.047 0.010-0.053-0.108-0.018-0.281 0.084-0.646 0.245-0.646 0.285 0 0.054 0.67-0.184 0.753-0.267h0zM5.543 4.499c0.305-1.354 0.319-1.391 0.53-1.485l0.217-0.097-0.189-0.003c-0.104-0.002-0.221 0.038-0.26 0.089-0.071 0.091-0.739 2.914-0.731 3.088 0.010 0.192 0.131-0.253 0.433-1.592zM22.983 5.801c-0.085-0.149-0.105-0.101-0.036 0.083 0.025 0.066 0.060 0.104 0.078 0.085s-0.001-0.095-0.043-0.169zM22.005 3.003c0.097 0.019 0.159 0.006 0.138-0.029s-0.117-0.063-0.213-0.063h-0.175l0.016 1.488 0.016 1.488 0.021-1.46 0.021-1.46 0.176 0.034zM6.501 5.451c-0.027-0.147-0.065-0.252-0.085-0.231s-0.014 0.157 0.013 0.305c0.027 0.148 0.065 0.252 0.085 0.231s0.014-0.157-0.013-0.305zM7.425 4.15c0.013-1.414 0.014-1.423 0.175-1.446 0.089-0.013 0.162-0.058 0.162-0.1 0-0.044-0.069-0.058-0.162-0.033-0.089 0.024-0.186 0.045-0.215 0.045s-0.054 0.684-0.054 1.52c0 0.835 0.018 1.5 0.040 1.477s0.046-0.681 0.054-1.464zM21.021 2.743c0.18-0.028 0.177-0.031-0.037-0.042l-0.233-0.011 0.016 1.488 0.016 1.488 0.021-1.447 0.021-1.447 0.196-0.030zM8.199 4.788c-0.101-0.299-0.195-0.533-0.209-0.519s0.049 0.291 0.14 0.616c0.091 0.325 0.185 0.558 0.209 0.519s-0.039-0.317-0.14-0.616l0 0zM19.798 4.473c-0.015-0.192-0.027-0.035-0.027 0.349s0.012 0.541 0.027 0.349c0.015-0.192 0.015-0.506 0-0.698zM9.053 4.553c0-0.431-0.012-0.77-0.026-0.753-0.062 0.072-0.098 1.537-0.039 1.537 0.036 0 0.065-0.353 0.065-0.784zM10.057 3.757v-1.424l0.322-0.049c0.177-0.027 0.435-0.036 0.574-0.019s0.225 0.002 0.192-0.032c-0.033-0.034-0.316-0.052-0.628-0.040l-0.567 0.022-0.019 1.53c-0.013 1.027 0.005 1.515 0.054 1.484 0.046-0.029 0.073-0.581 0.073-1.47zM18.724 2.39l0.196-0.007-0.179-0.055c-0.099-0.030-0.204-0.041-0.233-0.025s-0.047 0.697-0.038 1.513l0.016 1.484 0.021-1.451 0.021-1.451 0.196-0.007zM23.318 3.379c0.191 0.040 0.19 0.039-0.020-0.059l-0.215-0.1-0.036 0.893c-0.020 0.491-0.020 0.943 0 1.003s0.045-0.315 0.056-0.834l0.020-0.944 0.195 0.041zM12.327 4.82c-0.222-0.27-0.294-0.599-0.287-1.3 0.006-0.601 0.174-1.14 0.408-1.307 0.084-0.061 0.284-0.111 0.442-0.112 0.239-0.002 0.266-0.016 0.158-0.080-0.18-0.107-0.476-0.019-0.714 0.213-0.506 0.493-0.557 2.1-0.083 2.623 0.236 0.261 0.297 0.232 0.076-0.037zM14.861 2.114c0.311 0.014 0.529 0.002 0.483-0.028s-0.317-0.055-0.603-0.055l-0.52-0.001 0.016 1.525 0.016 1.525 0.021-1.496 0.021-1.496 0.566 0.026zM15.332 4.601c-0.067-0.207-0.138-0.36-0.158-0.34s0.019 0.206 0.086 0.414c0.067 0.207 0.138 0.36 0.158 0.34s-0.019-0.206-0.086-0.414v0zM11.068 4.707c0.17-0.157 0.184-0.605 0.026-0.808-0.108-0.138-0.109-0.137-0.036 0.018 0.188 0.398 0.007 0.831-0.348 0.833-0.102 0.001-0.235 0.036-0.294 0.079-0.080 0.059-0.029 0.069 0.203 0.042 0.171-0.020 0.373-0.094 0.448-0.164h0zM16.469 4.657c-0.161-0.315-0.217-1.344-0.096-1.785 0.123-0.45 0.434-0.717 0.796-0.682 0.147 0.014 0.253 0.001 0.234-0.030s-0.164-0.056-0.322-0.056c-0.355 0-0.656 0.275-0.772 0.704-0.13 0.478-0.096 1.418 0.063 1.776 0.076 0.172 0.157 0.312 0.18 0.312s-0.014-0.108-0.081-0.239zM6.242 4.758c0.078-0.051 0.075-0.126-0.017-0.421l-0.111-0.36 0.041 0.335c0.036 0.299 0.023 0.344-0.127 0.418-0.152 0.075-0.154 0.083-0.024 0.086 0.079 0.002 0.186-0.024 0.238-0.058zM17.518 4.68c0.041-0.078 0.074-0.186 0.073-0.239s-0.043-0.014-0.093 0.087c-0.075 0.148-0.143 0.182-0.356 0.176-0.145-0.005-0.246 0.020-0.225 0.055 0.077 0.127 0.524 0.069 0.601-0.079zM13.233 4.454c0.090-0.184 0.125-0.434 0.125-0.882 0-0.785-0.139-1.128-0.472-1.161-0.132-0.013-0.257 0.022-0.31 0.087-0.078 0.096-0.061 0.099 0.138 0.022 0.205-0.079 0.24-0.071 0.36 0.081 0.26 0.329 0.281 1.513 0.034 1.899-0.094 0.147-0.166 0.182-0.326 0.158-0.113-0.017-0.188-0.002-0.166 0.034s0.141 0.054 0.265 0.042c0.177-0.018 0.254-0.079 0.352-0.28zM9.028 2.47c0.033-0.032 0.125-0.075 0.204-0.094 0.097-0.024 0.070-0.038-0.080-0.044l-0.224-0.009-0.225 0.79c-0.124 0.435-0.223 0.84-0.221 0.9s0.113-0.249 0.245-0.688 0.268-0.824 0.301-0.856zM17.615 3.7l0.372-0.027-0.413-0.014c-0.408-0.013-0.413-0.011-0.403 0.189 0.008 0.168 0.015 0.175 0.040 0.040 0.026-0.137 0.087-0.166 0.403-0.188zM11.46 3.724c-0.026-0.043-0.082-0.078-0.124-0.078-0.048 0-0.042 0.042 0.014 0.112 0.098 0.121 0.186 0.094 0.109-0.034zM19.817 3.124v-0.596l0.197 0.047c0.146 0.035 0.17 0.028 0.090-0.028-0.059-0.041-0.164-0.075-0.233-0.076-0.109-0.001-0.126 0.075-0.126 0.587v0.589l-0.377-0.029c-0.293-0.022-0.321-0.017-0.126 0.026 0.591 0.128 0.574 0.144 0.574-0.52v-0zM10.995 3.364c0.204-0.169 0.22-0.553 0.030-0.731-0.122-0.115-0.126-0.115-0.043-0.001 0.117 0.16 0.077 0.58-0.063 0.653-0.059 0.031-0.221 0.089-0.359 0.129l-0.251 0.072 0.261 0.008c0.156 0.004 0.327-0.047 0.425-0.128zM15.368 3.279c0.172-0.176 0.188-0.532 0.031-0.693-0.163-0.167-0.2-0.142-0.071 0.048 0.25 0.365 0.093 0.639-0.415 0.724l-0.299 0.050 0.305 0.009c0.218 0.007 0.346-0.033 0.448-0.138zM17.492 2.784c-0.024-0.024-0.041 0.019-0.038 0.096 0.003 0.086 0.020 0.103 0.043 0.044 0.021-0.053 0.018-0.116-0.006-0.141v-0z"></path>
<path fill="#9f6b08" style="fill: var(--color4, #9f6b08)" d="M13.394 29.345c-0.863-0.421-3.122-2.334-4.629-3.919-4.111-4.324-6.405-9.439-7.247-16.158-0.112-0.893-0.286-3.58-0.287-4.42-0.001-1.362 0.423-2.193 1.348-2.643 0.991-0.482 2.979-1.108 4.5-1.419 2.656-0.542 6.374-0.782 9.185-0.593 3.15 0.212 5.521 0.657 7.805 1.465 1.632 0.578 2.121 0.911 2.484 1.694 0.186 0.401 0.187 0.417 0.174 2.021-0.055 6.592-1.757 12.406-4.987 17.031-1.518 2.174-3.669 4.393-5.987 6.175-1.238 0.953-1.683 1.097-2.361 0.765l0-0zM14.955 28.829c1.691-1.156 4.354-3.677 5.681-5.378 1.423-1.824 2.937-4.458 3.697-6.43 1.168-3.032 1.822-6.136 2.085-9.884 0.088-1.252 0.092-2.988 0.008-3.359-0.042-0.186-0.037-0.281 0.018-0.3 0.105-0.036-0.137-0.42-0.265-0.42-0.051 0-0.172-0.086-0.267-0.191-0.675-0.741-4.149-1.782-7.314-2.192-2.3-0.298-6.17-0.335-8.468-0.081-3.533 0.39-7.301 1.466-8.066 2.305-0.115 0.125-0.232 0.213-0.261 0.195-0.371-0.235-0.367 3.259 0.008 6.285 0.823 6.646 3.181 11.789 7.383 16.098 1.482 1.52 3.284 3.047 4.253 3.604 0.52 0.299 0.761 0.259 1.509-0.252zM13.6 28.459c-0.163-0.097-0.629-0.434-1.035-0.749s-0.781-0.572-0.832-0.572-0.2-0.096-0.329-0.214l-0.234-0.213 0.269 0.198c0.362 0.266 0.342 0.191-0.030-0.115-0.165-0.136-0.276-0.207-0.247-0.159 0.12 0.198-0.089 0.066-0.354-0.223-0.156-0.171-0.203-0.245-0.104-0.166s-0.354-0.417-1.007-1.104c-1.15-1.211-2.25-2.543-2.972-3.6-0.412-0.603-0.52-0.732-0.402-0.478l0.085 0.184-0.147-0.184c-0.081-0.101-0.132-0.227-0.113-0.279s0.003-0.076-0.034-0.053c-0.072 0.045-0.309-0.358-0.248-0.421 0.020-0.020-0.123-0.336-0.317-0.703-0.515-0.971-0.912-1.83-1.373-2.972-0.224-0.556-0.427-0.991-0.451-0.966s-0.026-0.034-0.006-0.129c0.024-0.113 0.015-0.141-0.027-0.081-0.091 0.13-0.333-0.585-0.273-0.804 0.038-0.136 0.031-0.148-0.034-0.059-0.063 0.086-0.071 0.053-0.036-0.147 0.035-0.203 0.027-0.234-0.038-0.147-0.070 0.093-0.076 0.090-0.040-0.024 0.023-0.074-0.036-0.454-0.133-0.845-0.467-1.895-0.954-5.268-0.978-6.774-0.004-0.232-0.022-0.288-0.060-0.188-0.051 0.132-0.058 0.13-0.102-0.037-0.026-0.099-0.047-0.353-0.048-0.566-0.002-0.585-0.142-0.51-0.24 0.129-0.016 0.101-0.032-0.312-0.037-0.919s0.015-1.135 0.044-1.176c0.029-0.040 0.149-0.073 0.267-0.073 0.258 0 0.311-0.159 0.157-0.475-0.1-0.206-0.096-0.228 0.084-0.415 0.183-0.191 0.86-0.546 1.231-0.647 0.173-0.047 0.173-0.045-0.018 0.067-0.109 0.063-0.197 0.147-0.197 0.186 0 0.091-0.002 0.091 0.359-0.039 0.364-0.131 0.456-0.138 0.39-0.029-0.032 0.053-0.002 0.066 0.085 0.038 1.545-0.498 2.867-0.83 4.261-1.071 0.66-0.114 1.121-0.224 1.041-0.248-0.079-0.024 0.018-0.027 0.215-0.007 0.274 0.028 0.333 0.017 0.251-0.045s-0.013-0.073 0.287-0.046c0.217 0.020 1.089 0.008 1.937-0.027 2.861-0.117 4.055-0.143 3.966-0.085-0.049 0.032 0.39 0.098 0.976 0.147 1.301 0.11 3.284 0.4 4.357 0.637 0.438 0.097 0.875 0.159 0.97 0.137 0.141-0.032 0.153-0.024 0.065 0.045s-0.080 0.077 0.048 0.040c0.186-0.053 0.54 0.026 0.49 0.109-0.020 0.032 0.034 0.040 0.119 0.017 0.113-0.030 0.14-0.016 0.099 0.051-0.042 0.069-0.015 0.080 0.105 0.040 0.103-0.034 0.145-0.025 0.116 0.023-0.026 0.043 0.115 0.13 0.332 0.203 0.716 0.242 1.526 0.629 1.729 0.826 0.426 0.413 0.443 0.499 0.428 2.128-0.012 1.263-0.151 3.508-0.274 4.427-0.039 0.289-0.017 0.239 0.194-0.441 0.081-0.263 0.176-0.513 0.21-0.557s0.093-0.259 0.131-0.478c0.066-0.378 0.067-0.37 0.031 0.153-0.251 3.668-1.491 8.036-3.157 11.12-1.417 2.624-3.466 5.223-5.482 6.953l-0.465 0.4 0.326-0.363c0.18-0.2 0.379-0.483 0.443-0.63s0.223-0.395 0.352-0.551l0.235-0.284-0.247 0.224c-0.136 0.123-0.457 0.419-0.714 0.657-0.561 0.52-2.014 1.713-2.668 2.191-0.595 0.435-0.794 0.476-1.181 0.246zM11.78 19.74c0.304-0.312 0.121-0.532-0.232-0.279-0.129 0.093-0.248 0.176-0.263 0.185-0.058 0.035 0.157 0.241 0.252 0.241 0.054 0 0.163-0.066 0.242-0.147zM9.887 18.635c0.006-0.12-0.012-0.218-0.041-0.218-0.097 0-0.238 0.358-0.19 0.485 0.069 0.184 0.217 0.012 0.231-0.267zM15.145 18.591c0.132-0.067 0.145-0.098 0.065-0.148-0.056-0.035-0.17-0.179-0.254-0.32-0.19-0.319-0.451-0.611-0.502-0.559-0.021 0.021 0.067 0.207 0.196 0.412 0.193 0.308 0.227 0.423 0.196 0.66-0.041 0.317 0.032 0.481 0.094 0.21 0.022-0.094 0.114-0.209 0.205-0.255h-0zM18.955 18.472c-0.001-0.051-0.029-0.137-0.063-0.192-0.079-0.127-0.183 0.020-0.124 0.177 0.049 0.131 0.188 0.142 0.187 0.015zM16.085 16.869c0-0.035-0.065-0.098-0.143-0.142s-0.144-0.127-0.144-0.186c0-0.059-0.032-0.108-0.072-0.108-0.123 0-0.081 0.428 0.050 0.503s0.309 0.036 0.309-0.067zM10.436 15.845l0.039-0.404-0.111 0.257c-0.061 0.142-0.123 0.423-0.137 0.625-0.025 0.362-0.024 0.364 0.072 0.147 0.054-0.121 0.115-0.402 0.137-0.625zM14.205 16.312c0.018-0.124 0.074-0.146 0.369-0.141 0.402 0.006 0.616-0.144 0.689-0.486 0.036-0.166 0.011-0.259-0.104-0.383-0.083-0.090-0.276-0.421-0.429-0.735-0.315-0.645-0.302-0.673 0.282-0.615 0.196 0.019 0.356 0.012 0.356-0.016 0-0.097 0.366-0.222 0.649-0.222 0.205 0 0.308 0.040 0.373 0.147 0.049 0.081 0.138 0.146 0.198 0.145 0.086-0.002 0.082-0.018-0.017-0.077-0.223-0.133-0.133-0.222 0.1-0.099 0.174 0.092 0.203 0.134 0.126 0.184-0.073 0.048-0.052 0.065 0.079 0.064 0.179-0.001 0.179-0.001-0.055-0.219-0.179-0.167-0.303-0.218-0.525-0.218-0.16 0-0.353-0.034-0.429-0.076-0.17-0.093-0.192-0.328-0.024-0.262 0.063 0.025 0.2 0.064 0.305 0.086l0.191 0.042-0.179-0.162c-0.099-0.089-0.268-0.194-0.377-0.233-0.237-0.085-0.257-0.259-0.041-0.341 0.147-0.056 0.144-0.062-0.054-0.104-0.135-0.029-0.255-0.127-0.336-0.275-0.111-0.203-0.151-0.224-0.344-0.181-0.245 0.055-0.571-0.114-0.571-0.296 0-0.060 0.068-0.178 0.151-0.263l0.151-0.155-0.139-0.452c-0.133-0.432-0.155-0.46-0.536-0.647-0.589-0.291-0.61-0.534-0.076-0.905 0.323-0.225 0.576-0.234 0.959-0.034 0.31 0.162 0.494 0.484 0.494 0.865 0 0.142 0.129 0.392 0.39 0.754 0.404 0.561 0.572 0.99 0.531 1.359-0.020 0.175-0.064 0.221-0.239 0.247-0.189 0.029-0.176 0.038 0.108 0.073 0.27 0.034 0.341 0.078 0.433 0.266 0.148 0.302 0.498 0.752 0.499 0.641 0-0.049-0.067-0.264-0.149-0.478s-0.261-0.819-0.397-1.344c-0.143-0.552-0.375-1.217-0.55-1.576-0.166-0.341-0.313-0.647-0.326-0.68s0.042-0.059 0.123-0.059c0.238 0 0.642 0.425 0.949 0.997 0.302 0.563 0.545 0.791 0.804 0.753 0.136-0.020 0.155-0.065 0.144-0.328-0.015-0.353-0.249-0.867-0.455-0.999-0.209-0.134-0.173-0.202 0.105-0.202 0.248 0 0.39-0.099 0.26-0.181-0.038-0.024-0.309-0.107-0.603-0.184s-0.86-0.293-1.259-0.481c-0.441-0.207-0.779-0.324-0.861-0.297-0.074 0.024-0.309 0.2-0.522 0.391-0.588 0.527-1.054 0.855-1.568 1.104-0.863 0.418-1.041 0.712-1.248 2.069-0.065 0.422-0.143 0.786-0.175 0.808-0.135 0.094-0.814 1.068-0.911 1.306-0.128 0.313-0.133 0.468-0.023 0.716 0.104 0.233 0.369 0.249 0.518 0.031 0.166-0.243 0.333-0.131 0.282 0.19-0.027 0.17-0.013 0.261 0.040 0.261 0.127 0 0.371-0.282 0.484-0.561 0.136-0.334 0.268-0.375 0.599-0.184 0.345 0.198 0.748 0.203 0.986 0.011 0.1-0.080 0.207-0.129 0.24-0.109 0.078 0.049 0.176-0.114 0.176-0.295 0-0.198 0.223-0.229 0.32-0.044 0.058 0.111 0.055 0.188-0.010 0.295-0.127 0.208-0.011 0.28 0.227 0.14l0.204-0.12 0.030 0.267c0.027 0.239-0.005 0.302-0.313 0.609-0.379 0.378-0.482 0.642-0.358 0.921 0.093 0.209 0.249 0.197 0.28-0.022zM11.421 14.775c0-0.218 0.117-0.473 0.218-0.473 0.099 0 0.086 0.468-0.017 0.573-0.135 0.138-0.201 0.105-0.201-0.1v0zM12.389 13.813c-0.065-0.067-0.148-0.2-0.183-0.296-0.095-0.254-0.263-0.288-0.465-0.094-0.212 0.204-0.294 0.148-0.192-0.13 0.041-0.112 0.114-0.516 0.161-0.896 0.135-1.086 0.441-1.265 0.686-0.401 0.062 0.217 0.158 0.442 0.215 0.5s0.103 0.238 0.103 0.4c0 0.238 0.055 0.36 0.287 0.634 0.158 0.187 0.287 0.354 0.287 0.372s-0.175 0.032-0.39 0.032c-0.267 0-0.427-0.038-0.508-0.122v-0zM15.26 9.196c-0.173-0.146-0.195-0.195-0.114-0.25 0.199-0.134 0.64 0.16 0.5 0.333-0.108 0.133-0.136 0.127-0.386-0.083zM17.389 15.642c0.070-0.072-0.020-0.091-0.432-0.091-0.785 0-1.159-0.263-1.159-0.813 0-0.606 0.754-0.773 0.946-0.21 0.040 0.118 0.103 0.215 0.14 0.215 0.039 0 0.037-0.059-0.007-0.142-0.121-0.232-0.087-0.298 0.159-0.307 0.174-0.006 0.137-0.025-0.148-0.074-0.21-0.036-0.442-0.098-0.515-0.138-0.293-0.161-0.783-0.054-0.984 0.214-0.252 0.336 0.042 1.031 0.554 1.311 0.273 0.149 0.402 0.173 0.841 0.151 0.285-0.014 0.558-0.066 0.606-0.116zM18.842 15.174c-0.028-0.046-0.054-0.151-0.058-0.233s-0.053-0.165-0.107-0.183c-0.060-0.021-0.080-0.001-0.050 0.049s-0.004 0.083-0.090 0.083c-0.077 0-0.159 0.050-0.181 0.11-0.031 0.082 0.011 0.11 0.167 0.11 0.115 0 0.229 0.033 0.253 0.073s0.061 0.073 0.080 0.073c0.020 0 0.013-0.038-0.015-0.084zM18.553 13.304c0.054-0.143-0.026-0.692-0.101-0.692-0.114 0-0.196 0.656-0.095 0.759 0.079 0.080 0.149 0.056 0.196-0.067zM11.136 12.894c0.157-0.249 0.285-0.489 0.285-0.533s-0.081 0.062-0.178 0.237c-0.098 0.175-0.245 0.414-0.327 0.533s-0.131 0.215-0.107 0.215 0.171-0.204 0.328-0.452zM18.774 11.273c-0.051-0.308-0.16-0.423-0.255-0.269-0.106 0.171-0.072 0.572 0.061 0.71 0.121 0.126 0.128 0.125 0.183-0.016 0.032-0.081 0.037-0.272 0.012-0.425zM11.536 11.382c-0.024-0.024-0.041 0.019-0.038 0.096 0.003 0.086 0.020 0.103 0.043 0.044 0.021-0.053 0.018-0.116-0.006-0.141zM12.103 10.333c0.071-0.081 0.114-0.147 0.094-0.147s-0.094 0.066-0.166 0.147c-0.071 0.081-0.114 0.147-0.094 0.147s0.094-0.066 0.166-0.147v-0zM18.42 8.618c0.095-0.518-0.365-1.082-0.973-1.193-0.249-0.046-0.248-0.045 0.072 0.127 0.565 0.303 0.819 0.954 0.535 1.369-0.061 0.090-0.089 0.202-0.060 0.249 0.076 0.127 0.372-0.256 0.426-0.552h-0zM14.112 9.011c0.072-0.081 0.114-0.147 0.094-0.147s-0.094 0.066-0.166 0.147c-0.071 0.081-0.114 0.147-0.094 0.147s0.094-0.066 0.166-0.147zM14.579 8.607c0.049-0.061 0.073-0.11 0.053-0.11s-0.076 0.050-0.125 0.11c-0.049 0.061-0.073 0.11-0.053 0.11s0.076-0.050 0.125-0.11zM13.323 7.205c-0.62-0.228-0.651-0.654-0.064-0.883 0.284-0.111 0.464-0.108 0.775 0.014 0.076 0.030 0.114 0.005 0.114-0.075 0-0.159 0.282-0.262 0.74-0.271 0.294-0.006 0.334-0.020 0.193-0.066-0.736-0.241-2.093 0.142-2.402 0.678l-0.132 0.228 0.261 0.245c0.203 0.191 0.321 0.244 0.531 0.24l0.27-0.005-0.287-0.106zM3.599 5.266c0-1.228 0.017-1.464 0.108-1.5 0.093-0.037 0.108 0.131 0.108 1.241 0 1.426-0.026 1.365 0.502 1.174 0.351-0.127 0.431-0.135 0.431-0.047 0 0.035-0.244 0.155-0.542 0.266s-0.529 0.215-0.514 0.231c0.015 0.016 0.273-0.061 0.572-0.172 0.481-0.177 0.547-0.224 0.573-0.406 0.032-0.226 0.003-0.227-0.511-0.011-0.462 0.194-0.448 0.232-0.425-1.185 0.012-0.707 0.018-1.286 0.014-1.286s-0.109 0.036-0.233 0.081l-0.226 0.081v1.54c0 1.008 0.025 1.525 0.072 1.495 0.044-0.028 0.072-0.611 0.072-1.503zM15.5 6.668c0.072-0.046 0.054-0.073-0.069-0.106-0.091-0.024-0.183-0.015-0.204 0.021s-0.152 0.079-0.29 0.096c-0.201 0.025-0.18 0.033 0.108 0.042 0.197 0.006 0.402-0.017 0.455-0.051zM24.138 5.144l-0.021-1.442 0.2 0.051c0.237 0.060 0.145-0.063-0.105-0.14l-0.162-0.050v1.511c0 0.831 0.024 1.511 0.054 1.512s0.044-0.649 0.033-1.442v0zM22.751 5.124c-0.243-0.613-0.455-1.101-0.471-1.085s0.137 0.455 0.341 0.976c0.203 0.52 0.399 1.025 0.436 1.122s0.082 0.159 0.102 0.139c0.020-0.020-0.163-0.538-0.407-1.151zM5.572 5.721c0.068-0.464 0.095-0.512 0.311-0.565 0.105-0.025 0.209-0.053 0.312-0.083 0.096-0.029 0.136 0.045 0.201 0.366l0.082 0.402 0.218-0.078c0.254-0.091 0.271 0.077-0.171-1.68l-0.306-1.217-0.221 0.059c-0.207 0.055-0.228 0.094-0.343 0.629-0.067 0.314-0.229 1.037-0.359 1.607l-0.237 1.037 0.233-0.073c0.205-0.064 0.238-0.112 0.281-0.403v0zM5.346 5.737c-0.023-0.062-0.026-0.13-0.007-0.15s0.053 0.031 0.074 0.113c0.045 0.175-0.005 0.202-0.067 0.036zM5.399 5.379c-0.003-0.077 0.014-0.121 0.038-0.096s0.026 0.088 0.006 0.141c-0.023 0.059-0.040 0.041-0.043-0.044zM5.542 4.718c-0.003-0.077 0.014-0.121 0.038-0.096s0.026 0.088 0.006 0.141c-0.023 0.059-0.040 0.041-0.043-0.044v-0zM5.831 4.546c0.004-0.111 0.046-0.367 0.094-0.57l0.087-0.367 0.090 0.507c0.073 0.415 0.073 0.519-0.004 0.568-0.178 0.115-0.273 0.065-0.266-0.139zM5.614 4.424c-0.003-0.077 0.014-0.121 0.038-0.096s0.026 0.088 0.006 0.141c-0.023 0.059-0.040 0.041-0.043-0.044zM5.726 3.977c0.081-0.492 0.173-0.707 0.126-0.294-0.023 0.202-0.072 0.417-0.108 0.478-0.043 0.072-0.050 0.008-0.018-0.184zM5.897 3.187c-0.001-0.086 0.052-0.127 0.16-0.123s0.126 0.020 0.054 0.048c-0.059 0.023-0.131 0.078-0.16 0.123-0.033 0.050-0.053 0.032-0.054-0.048zM21.898 4.428v-1.423l0.197 0.032c0.154 0.025 0.174 0.015 0.090-0.046-0.059-0.043-0.18-0.079-0.269-0.079l-0.161-0.001v1.47c0 0.931 0.026 1.47 0.072 1.47s0.072-0.523 0.072-1.423v0zM7.659 5.557c0.082 0 0.104-0.187 0.112-0.974 0.005-0.535 0.024-0.891 0.041-0.79 0.050 0.293 0.463 1.647 0.521 1.713 0.029 0.033 0.074-0.066 0.1-0.221s0.158-0.627 0.294-1.052l0.248-0.772-0.042 0.962-0.042 0.962 0.444-0.067 0.021-1.499 0.021-1.499h-0.226c-0.218 0-0.232 0.018-0.384 0.533-0.087 0.293-0.214 0.758-0.282 1.033l-0.124 0.5-0.263-0.84c-0.145-0.462-0.263-0.877-0.263-0.923 0-0.092-0.099-0.103-0.341-0.036-0.161 0.044-0.162 0.051-0.162 1.55 0 1.343 0.012 1.501 0.114 1.461 0.062-0.024 0.159-0.045 0.215-0.045zM20.837 4.189l-0.021-1.442 0.182 0.047c0.1 0.026 0.182 0.017 0.182-0.020s-0.097-0.081-0.215-0.099l-0.215-0.032v1.494c0 0.822 0.024 1.494 0.054 1.494s0.044-0.649 0.033-1.442zM19.798 4.363c-0.015-0.212-0.026-0.039-0.026 0.386s0.012 0.598 0.026 0.386c0.015-0.212 0.015-0.559 0-0.772v0zM10.923 5.11c0.391-0.101 0.588-0.362 0.626-0.833 0.028-0.35 0.011-0.422-0.143-0.579-0.171-0.175-0.172-0.183-0.044-0.344 0.201-0.254 0.176-0.771-0.049-1-0.166-0.17-0.222-0.182-0.771-0.162l-0.592 0.021-0.019 1.514-0.019 1.514 0.378-0.033c0.208-0.018 0.493-0.063 0.634-0.099h0zM10.345 4.271v-0.478h0.276c0.331 0 0.513 0.174 0.513 0.49 0 0.29-0.198 0.465-0.526 0.465h-0.263v-0.478zM10.373 3.323c-0.021-0.055-0.027-0.245-0.015-0.421 0.020-0.287 0.043-0.323 0.216-0.344 0.311-0.037 0.488 0.102 0.488 0.384s-0.085 0.372-0.415 0.436c-0.166 0.032-0.247 0.016-0.274-0.055h-0zM18.597 3.821c0-1.405 0.004-1.441 0.143-1.403 0.079 0.021 0.144 0.012 0.144-0.020 0-0.052-0.238-0.145-0.377-0.148-0.030-0.001-0.054 0.677-0.054 1.505 0 0.955 0.026 1.507 0.072 1.507s0.072-0.53 0.072-1.442zM23.317 3.388c0.194 0.038 0.193 0.037-0.020-0.066l-0.215-0.104-0.020 0.849c-0.018 0.764-0.031 0.835-0.126 0.709-0.097-0.127-0.099-0.121-0.031 0.081 0.157 0.467 0.178 0.411 0.198-0.534l0.020-0.975 0.195 0.038zM17.593 5.072c0.118-0.074 0.13-0.095 0.036-0.061-0.079 0.028-0.257 0.077-0.395 0.107-0.247 0.054-0.247 0.055-0.036 0.061 0.118 0.003 0.296-0.045 0.395-0.107v0zM13.201 4.967c0.288-0.18 0.437-0.52 0.492-1.125 0.114-1.252-0.445-2.119-1.148-1.777-0.361 0.175-0.567 0.637-0.608 1.362-0.075 1.325 0.495 2.020 1.263 1.54zM12.574 4.533c-0.295-0.302-0.299-1.559-0.006-1.878 0.219-0.239 0.397-0.234 0.555 0.014 0.099 0.155 0.127 0.353 0.127 0.903s-0.028 0.748-0.127 0.903c-0.149 0.234-0.356 0.255-0.549 0.057zM15.799 4.966c0-0.033-0.093-0.329-0.206-0.657l-0.207-0.597 0.17-0.114c0.385-0.259 0.374-1.1-0.020-1.417-0.153-0.123-0.291-0.151-0.752-0.151h-0.564v3.013h0.179c0.178 0 0.179-0.005 0.179-0.661v-0.661l0.197 0.001c0.186 0.001 0.209 0.039 0.402 0.684 0.202 0.675 0.207 0.683 0.413 0.652 0.114-0.017 0.208-0.058 0.208-0.091zM15.489 4.914c-0.017-0.030-0.118-0.328-0.225-0.661l-0.195-0.606h-0.281c-0.177 0-0.281-0.034-0.281-0.092 0-0.061 0.134-0.096 0.398-0.104 0.218-0.006 0.441-0.049 0.495-0.095 0.266-0.226 0.177-0.798-0.148-0.949-0.213-0.099-0.649-0.11-0.705-0.017-0.022 0.036-0.046 0.432-0.054 0.88s-0.032 0.795-0.054 0.773c-0.022-0.022-0.056-0.452-0.076-0.954l-0.036-0.913 0.504 0c0.587 0 0.773 0.1 0.895 0.478 0.112 0.348 0.032 0.661-0.222 0.865l-0.211 0.169 0.211 0.641c0.161 0.488 0.188 0.641 0.113 0.641-0.054 0-0.113-0.025-0.129-0.055zM14.608 3.251c-0.021-0.056-0.028-0.262-0.016-0.459 0.021-0.344 0.031-0.359 0.254-0.381 0.464-0.046 0.788 0.573 0.434 0.827-0.198 0.142-0.621 0.151-0.672 0.013zM16.742 4.93c-0.28-0.242-0.392-0.603-0.398-1.284-0.006-0.736 0.171-1.225 0.494-1.363 0.327-0.14 0.715-0.009 0.885 0.298 0.045 0.081 0.082 0.103 0.083 0.049s-0.092-0.194-0.208-0.312c-0.161-0.165-0.276-0.215-0.493-0.215-0.622 0-0.906 0.536-0.864 1.628 0.029 0.752 0.183 1.204 0.448 1.313 0.261 0.108 0.275 0.077 0.053-0.115zM17.471 4.789c0.251-0.257 0.205-0.849-0.067-0.849-0.054 0-0.099-0.053-0.099-0.118 0-0.077 0.039-0.103 0.114-0.073 0.062 0.025 0.19 0.045 0.283 0.045 0.154 0 0.172 0.037 0.196 0.386l0.026 0.386 0.013-0.459 0.013-0.459h-0.395c-0.37 0-0.395 0.011-0.395 0.179 0 0.14 0.042 0.184 0.197 0.202 0.173 0.020 0.194 0.050 0.172 0.244-0.037 0.325-0.139 0.478-0.318 0.476-0.266-0.003-0.478-0.231-0.547-0.587-0.043-0.224-0.066-0.267-0.071-0.132-0.024 0.605 0.545 1.1 0.875 0.762zM17.866 4.71c-0.022-0.023-0.062 0.018-0.089 0.091-0.039 0.105-0.031 0.113 0.040 0.041 0.049-0.050 0.071-0.109 0.049-0.132zM19.817 3.164c0-0.538 0.003-0.547 0.184-0.547 0.104 0 0.165-0.032 0.139-0.073-0.024-0.040-0.123-0.074-0.22-0.074-0.171 0-0.175 0.014-0.175 0.588 0 0.424-0.025 0.587-0.090 0.583-0.049-0.002-0.243-0.030-0.431-0.062s-0.341-0.032-0.341-0c0 0.031 0.153 0.079 0.341 0.104s0.373 0.057 0.413 0.068c0.149 0.044 0.179-0.056 0.179-0.588h0zM16.694 3.036c0.025-0.154 0.109-0.344 0.185-0.423s0.108-0.143 0.069-0.143c-0.127 0-0.301 0.356-0.332 0.677-0.034 0.363 0.010 0.299 0.077-0.112zM17.593 2.951c0-0.099-0.175-0.404-0.248-0.433-0.057-0.022-0.047 0.049 0.028 0.214 0.096 0.21 0.221 0.334 0.221 0.219zM17.88 2.84c0-0.039-0.048-0.052-0.108-0.029s-0.108 0.055-0.108 0.071c0 0.016 0.048 0.029 0.108 0.029s0.108-0.032 0.108-0.071zM3.135 2.631c-0.022-0.023-0.080 0-0.129 0.050-0.070 0.073-0.062 0.081 0.040 0.041 0.071-0.028 0.111-0.069 0.088-0.091v0z"></path>
<path fill="#9f6b08" style="fill: var(--color4, #9f6b08)" d="M13.83 29.446c-0.27-0.038-0.453-0.128-0.84-0.411-1.324-0.972-2.418-1.873-3.399-2.798-0.376-0.355-1.202-1.208-1.492-1.541-1.186-1.362-2.17-2.757-3.375-4.786-0.266-0.447-0.59-1.115-1.032-2.128-1.437-3.289-2.187-6.61-2.408-10.658-0.043-0.788-0.057-1.396-0.054-2.289 0.003-0.738 0.007-0.827 0.042-1.022 0.066-0.369 0.195-0.718 0.351-0.953 0.193-0.291 0.716-0.711 1.135-0.911 0.592-0.282 2.033-0.72 3.331-1.011 0.353-0.079 1.048-0.222 1.284-0.264 0.069-0.012 0.215-0.038 0.323-0.058s0.254-0.044 0.323-0.053 0.182-0.029 0.251-0.044c0.069-0.015 0.198-0.036 0.287-0.048 0.138-0.018 0.275-0.037 0.413-0.056s0.288-0.039 0.332-0.045c0.434-0.052 0.574-0.069 0.862-0.1 1.461-0.16 3.403-0.235 4.804-0.186 0.615 0.021 2.011 0.102 2.121 0.123 0.031 0.006 0.168 0.017 0.305 0.025s0.363 0.028 0.501 0.045c0.138 0.017 0.361 0.043 0.494 0.059 0.626 0.071 1.169 0.142 1.401 0.183 0.084 0.015 0.306 0.052 0.494 0.082 1.977 0.319 3.613 0.784 4.831 1.372 0.527 0.254 0.737 0.398 0.993 0.675 0.299 0.323 0.476 0.665 0.57 1.094 0.079 0.364 0.044 2.63-0.064 4.070-0.147 1.964-0.399 3.618-0.817 5.347-0.451 1.868-1.056 3.579-1.936 5.475-0.297 0.641-0.378 0.799-0.625 1.222-0.133 0.227-0.245 0.422-0.25 0.432s-0.033 0.056-0.063 0.101c-0.026 0.039-0.051 0.079-0.075 0.119-0.012 0.020-0.056 0.094-0.099 0.165s-0.081 0.137-0.084 0.147c-0.004 0.010-0.010 0.020-0.018 0.028-0.006 0.005-0.047 0.067-0.090 0.138s-0.11 0.175-0.148 0.233c-0.038 0.057-0.069 0.112-0.069 0.122s-0.006 0.021-0.014 0.025c-0.018 0.008-0.112 0.157-0.112 0.178 0 0.009-0.012 0.022-0.027 0.027s-0.027 0.019-0.027 0.029c0 0.010-0.044 0.084-0.099 0.165s-0.099 0.154-0.099 0.164c0 0.010-0.012 0.023-0.027 0.028-0.008 0.003-0.014 0.009-0.019 0.015s-0.008 0.015-0.008 0.023c0 0.015-0.007 0.028-0.015 0.028s-0.026 0.023-0.040 0.051c-0.014 0.028-0.032 0.059-0.039 0.069-0.060 0.081-0.134 0.185-0.265 0.376-0.128 0.187-0.265 0.378-0.447 0.625-1.617 2.195-3.307 3.844-5.963 5.815-0.388 0.288-0.569 0.39-0.795 0.449-0.158 0.041-0.383 0.058-0.517 0.039zM14.29 29.28c0.224-0.058 0.41-0.161 0.764-0.424 3.392-2.516 5.287-4.563 7.447-8.041 0.581-0.935 0.862-1.43 1.093-1.923 0.629-1.341 1.081-2.457 1.453-3.584 0.904-2.74 1.392-5.638 1.515-8.994 0.029-0.788 0.023-2.314-0.009-2.504-0.088-0.517-0.398-1.008-0.855-1.354-0.166-0.126-0.755-0.43-1.131-0.585-1.115-0.458-2.389-0.802-4.058-1.095-0.98-0.172-2.259-0.33-3.493-0.432-0.128-0.011-0.278-0.023-0.332-0.028-0.168-0.015-0.957-0.062-1.41-0.084-0.864-0.041-2.432-0.020-3.529 0.048-2.871 0.177-6.021 0.755-8.18 1.502-0.594 0.205-0.806 0.301-1.113 0.505-0.499 0.33-0.726 0.582-0.89 0.984-0.192 0.471-0.226 0.869-0.197 2.291 0.037 1.804 0.142 3.21 0.35 4.685 0.414 2.93 1.14 5.403 2.38 8.112 0.482 1.053 0.621 1.308 1.389 2.545 0.19 0.306 0.706 1.090 0.919 1.397 1.446 2.077 2.845 3.578 4.931 5.286 0.542 0.444 1.83 1.427 2.047 1.562 0.079 0.049 0.287 0.131 0.384 0.151 0.139 0.028 0.375 0.020 0.522-0.018zM13.807 28.538c-0.11-0.032-0.359-0.207-0.87-0.61-3.135-2.478-4.905-4.418-6.671-7.311-0.236-0.387-0.552-0.929-0.764-1.314s-0.888-1.822-1.225-2.609c-1.197-2.789-1.854-5.683-2.056-9.049-0.071-1.183-0.082-2.804-0.021-3.142 0.067-0.372 0.188-0.697 0.353-0.948 0.18-0.275 0.512-0.547 0.828-0.68 0.649-0.273 2.117-0.698 3.374-0.978 2.187-0.487 4.228-0.738 6.519-0.803 0.63-0.018 1.726-0.012 1.949 0.011 0.040 0.004 0.193 0.012 0.341 0.018 1.418 0.057 3.322 0.263 4.687 0.507 1.686 0.301 2.969 0.683 4.068 1.21 0.173 0.083 0.375 0.18 0.449 0.215 0.608 0.288 0.885 0.733 0.977 1.565 0.045 0.409-0.063 2.435-0.205 3.861-0.405 4.043-1.218 6.996-2.748 9.983-0.618 1.206-1.605 2.854-2.352 3.925-1.28 1.837-2.521 3.121-5.017 5.193-0.050 0.042-0.262 0.218-0.469 0.391s-0.432 0.352-0.498 0.398c-0.234 0.161-0.462 0.22-0.648 0.166zM9.152 21.97c0.22-0.102 0.293-0.259 0.323-0.692 0.020-0.288 0.075-0.397 0.216-0.427l0.071-0.015-0.009-0.174c-0.013-0.259-0.011-0.645 0.005-0.701 0.008-0.027 0.097-0.156 0.199-0.285 0.241-0.306 0.385-0.518 0.426-0.627 0.018-0.048 0.050-0.207 0.071-0.353 0.043-0.298 0.024-0.255 0.349-0.796 0.096-0.161 0.241-0.428 0.321-0.595 0.087-0.181 0.173-0.333 0.214-0.377 0.035-0.039 0.070-0.078 0.104-0.117 0.020-0.023 0.044-0.043 0.054-0.043 0.037 0 0.144 0.116 0.184 0.198s0.042 0.104 0.042 0.515c0 0.428 0 0.429 0.042 0.464 0.023 0.019 0.061 0.035 0.084 0.035 0.041 0 0.041-0.001-0.010-0.056-0.073-0.080-0.090-0.191-0.077-0.503 0.010-0.245 0.008-0.277-0.029-0.387-0.022-0.066-0.037-0.147-0.034-0.18 0.005-0.056 0.010-0.060 0.086-0.065 0.091-0.007 0.133-0.037 0.181-0.135 0.034-0.069 0.043-0.125 0.038-0.23-0.003-0.050-0.016-0.066-0.096-0.11-0.123-0.068-0.157-0.12-0.179-0.273-0.026-0.177-0.005-0.724 0.032-0.849 0.033-0.11 0.048-0.112 0.176-0.022 0.125 0.088 0.507 0.253 0.695 0.302 0.231 0.059 0.544 0.066 0.644 0.014 0.086-0.045 0.408-0.297 0.543-0.425 0.062-0.058 0.161-0.142 0.22-0.186 0.061-0.045 0.12-0.092 0.178-0.141 0.039-0.034 0.089-0.061 0.112-0.061 0.063 0 0.235 0.071 0.294 0.123 0.108 0.093 0.054 0.187-0.209 0.362-0.207 0.138-0.429 0.384-0.532 0.589-0.047 0.095-0.265 0.756-0.265 0.804 0 0.078 0.059 0.239 0.118 0.322 0.216 0.307 0.32 0.479 0.343 0.566 0.013 0.052 0.037 0.125 0.052 0.162 0.058 0.143-0.012 0.222-0.248 0.281-0.091 0.023-0.212 0.047-0.268 0.054l-0.102 0.012 0.029 0.045c0.025 0.039 0.031 0.041 0.045 0.016 0.013-0.024 0.053-0.029 0.221-0.029 0.165 0 0.223-0.007 0.3-0.038l0.095-0.038 0.045 0.057c0.050 0.064 0.341 0.37 0.341 0.359 0-0.046-0.139-0.369-0.249-0.579-0.077-0.147-0.176-0.345-0.221-0.441-0.045-0.098-0.145-0.262-0.228-0.375-0.081-0.11-0.153-0.222-0.16-0.248-0.025-0.093-0.012-0.249 0.032-0.376 0.069-0.2 0.125-0.187 0.125 0.030 0 0.157 0.020 0.205 0.193 0.459 0.198 0.291 0.212 0.317 0.311 0.566 0.084 0.212 0.186 0.406 0.308 0.583 0.060 0.087 0.176 0.404 0.176 0.481 0 0.031-0.022 0.070-0.061 0.108l-0.061 0.060-0.039-0.050c-0.021-0.027-0.044-0.044-0.051-0.037s-0.016 0.066-0.020 0.131c-0.007 0.117-0.006 0.119 0.058 0.177 0.061 0.055 0.065 0.065 0.065 0.17 0 0.133 0.039 0.223 0.12 0.278 0.033 0.023 0.141 0.056 0.257 0.079l0.2 0.041 0.071-0.057c0.124-0.1 0.269-0.278 0.289-0.354 0.023-0.088 0.009-0.164-0.040-0.209-0.024-0.024-0.045-0.052-0.061-0.082-0.036-0.072-0.005-0.090 0.155-0.090 0.131 0 0.141-0.003 0.182-0.053 0.048-0.058 0.169-0.331 0.241-0.54 0.037-0.107 0.045-0.166 0.044-0.306-0.001-0.142 0.008-0.199 0.046-0.312 0.064-0.188 0.064-0.328 0.002-0.451-0.053-0.104-0.091-0.142-0.225-0.228-0.147-0.094-0.128-0.153 0.073-0.231 0.115-0.045 0.174-0.094 0.174-0.147 0-0.043-0.001-0.043-0.159-0.033s-0.159 0.010-0.193-0.040c-0.099-0.147-0.156-0.169-0.258-0.097-0.111 0.078-0.36 0.539-0.36 0.666 0 0.074 0.081 0.149 0.229 0.211 0.076 0.032 0.158 0.071 0.18 0.085 0.074 0.048 0.111 0.134 0.111 0.258 0 0.063 0.008 0.136 0.019 0.164s0.019 0.103 0.020 0.168c0.001 0.096-0.010 0.14-0.055 0.233-0.072 0.15-0.298 0.448-0.357 0.471-0.064 0.025-0.131-0.028-0.163-0.13-0.023-0.073-0.022-0.086 0.016-0.173 0.085-0.196 0.095-0.269 0.075-0.553-0.010-0.144-0.029-0.284-0.041-0.311-0.037-0.083-0.096-0.058-0.221 0.096-0.117 0.144-0.193 0.205-0.257 0.205-0.062 0-0.083-0.062-0.072-0.21s0.043-0.248 0.171-0.535c0.097-0.217 0.25-0.625 0.302-0.807 0.040-0.139 0.045-0.489 0.008-0.634-0.020-0.078-0.047-0.124-0.119-0.202-0.162-0.175-0.374-0.479-0.488-0.698-0.13-0.251-0.218-0.514-0.171-0.514 0.024 0 0.224 0.261 0.305 0.399 0.1 0.17 0.152 0.213 0.241 0.201 0.065-0.009 0.067-0.007 0.078 0.058 0.035 0.217 0.137 0.431 0.296 0.621 0.073 0.087 0.378 0.337 0.466 0.382 0.103 0.053 0.271 0.109 0.468 0.157 0.12 0.029 0.215 0.037 0.445 0.037 0.307 0 0.376-0.014 0.449-0.088 0.020-0.020 0.083-0.054 0.141-0.075s0.125-0.049 0.148-0.062c0.063-0.034 0.111-0.108 0.099-0.154-0.009-0.036-0.026-0.039-0.238-0.050-0.272-0.013-0.514-0.071-0.7-0.167-0.082-0.041-0.165-0.079-0.25-0.113-0.211-0.081-0.371-0.212-0.408-0.334-0.019-0.061 0.018-0.112 0.089-0.126 0.035-0.007 0.067-0.019 0.073-0.028s0.023-0.016 0.040-0.017c0.077-0.001 0.081-0.023 0.041-0.197-0.048-0.208-0.048-0.243-0.003-0.243 0.074 0 0.126 0.046 0.228 0.199 0.058 0.087 0.151 0.206 0.206 0.264 0.090 0.095 0.109 0.106 0.174 0.106 0.040 0 0.078-0.008 0.083-0.018s-0.006-0.051-0.026-0.091c-0.022-0.045-0.037-0.109-0.037-0.165 0-0.077 0.009-0.103 0.056-0.157 0.052-0.060 0.063-0.065 0.159-0.065 0.121 0 0.201 0.045 0.269 0.152 0.040 0.062 0.051 0.068 0.125 0.068 0.059 0 0.101-0.014 0.15-0.049 0.058-0.041 0.075-0.046 0.113-0.028 0.024 0.011 0.063 0.052 0.087 0.090s0.068 0.093 0.098 0.122c0.051 0.049 0.062 0.052 0.151 0.040 0.054-0.007 0.118-0.004 0.144 0.006 0.081 0.032 0.091 0.075 0.056 0.259-0.029 0.153-0.029 0.169-0.001 0.245 0.017 0.045 0.055 0.109 0.084 0.143 0.061 0.070 0.062 0.073 0.089 0.304 0.026 0.22 0.004 0.376-0.086 0.617-0.046 0.121-0.091 0.243-0.136 0.364-0.036 0.096-0.088 0.203-0.116 0.238l-0.051 0.063 0.073 0.057c0.095 0.074 0.167 0.198 0.269 0.465 0.145 0.381 0.159 0.428 0.161 0.574 0.002 0.116-0.010 0.174-0.074 0.371-0.102 0.313-0.104 0.433-0.013 0.555 0.035 0.046 0.063 0.098 0.063 0.115s-0.044 0.106-0.099 0.198c-0.224 0.379-0.223 0.552 0.004 0.764 0.119 0.111 0.223 0.169 0.29 0.162 0.045-0.005 0.048-0.013 0.054-0.107 0.006-0.113 0.057-0.189 0.119-0.18 0.031 0.005 0.038 0.024 0.049 0.131 0.015 0.155 0.023 0.178 0.065 0.178 0.074 0 0.325-0.199 0.375-0.299l0.027-0.054-0.078 0.055c-0.043 0.030-0.097 0.076-0.121 0.103-0.052 0.057-0.106 0.061-0.168 0.011-0.063-0.051-0.074-0.122-0.039-0.26 0.041-0.161 0.028-0.285-0.035-0.341-0.041-0.036-0.068-0.042-0.186-0.043-0.076 0-0.15-0.008-0.164-0.017-0.048-0.031 0.007-0.106 0.123-0.166 0.168-0.087 0.177-0.148 0.033-0.224-0.096-0.050-0.119-0.082-0.12-0.165-0.001-0.095 0.064-0.184 0.16-0.22 0.115-0.043 0.163-0.108 0.163-0.222 0-0.126-0.043-0.208-0.151-0.292-0.177-0.136-0.172-0.128-0.172-0.293 0-0.119 0.006-0.154 0.033-0.182 0.025-0.025 0.036-0.072 0.043-0.183 0.006-0.096 0.023-0.178 0.048-0.229 0.059-0.126 0.053-0.158-0.063-0.334-0.074-0.113-0.097-0.227-0.097-0.488 0-0.109-0.008-0.218-0.017-0.243-0.023-0.063-0.002-0.271 0.028-0.283 0.052-0.020 0.133 0.037 0.19 0.135 0.063 0.108 0.076 0.117 0.090 0.062 0.015-0.059 0.103-0.046 0.309 0.047 0.469 0.209 0.994 0.251 1.278 0.104 0.162-0.084 0.453-0.342 0.527-0.468 0.070-0.117 0.065-0.119-0.225-0.109-0.294 0.010-0.47-0.012-0.665-0.083-0.165-0.060-0.347-0.185-0.45-0.308-0.045-0.054-0.166-0.17-0.268-0.256s-0.19-0.17-0.196-0.185c-0.003-0.008-0.009-0.014-0.016-0.019s-0.015-0.008-0.023-0.008c-0.055 0-0.298-0.115-0.431-0.204-0.074-0.049-0.167-0.107-0.208-0.128-0.129-0.068-0.621-0.17-0.927-0.193l-0.166-0.012-0.012-0.067c-0.022-0.122-0.058-0.204-0.168-0.377-0.090-0.143-0.108-0.185-0.109-0.252-0-0.097-0.040-0.19-0.169-0.401-0.065-0.105-0.11-0.207-0.136-0.304-0.022-0.080-0.070-0.218-0.108-0.307-0.087-0.201-0.117-0.312-0.142-0.521-0.028-0.232-0.060-0.361-0.141-0.581-0.039-0.105-0.089-0.281-0.11-0.393-0.057-0.289-0.078-0.342-0.224-0.561-0.072-0.108-0.137-0.224-0.144-0.258s-0.035-0.088-0.062-0.119c-0.027-0.031-0.080-0.11-0.118-0.175-0.036-0.061-0.073-0.121-0.111-0.18-0.023-0.034-0.041-0.085-0.041-0.113 0-0.078 0.043-0.101 0.178-0.096 0.284 0.011 0.504 0.229 0.792 0.785 0.229 0.442 0.416 0.67 0.65 0.789 0.092 0.047 0.151 0.065 0.212 0.065 0.107 0 0.146-0.040 0.158-0.164 0.010-0.106-0.011-0.204-0.108-0.516-0.056-0.18-0.074-0.271-0.083-0.418-0.014-0.227-0.024-0.241-0.227-0.313-0.175-0.062-0.186-0.094-0.042-0.131 0.142-0.037 0.294 0.002 0.46 0.119 0.109 0.076 0.13 0.084 0.199 0.076 0.063-0.007 0.097-0.027 0.18-0.107 0.095-0.090 0.103-0.104 0.096-0.164-0.008-0.074 0.040-0.188 0.105-0.247 0.053-0.049 0.083-0.124 0.145-0.365 0.083-0.321 0.061-0.589-0.065-0.811-0.101-0.177-0.581-0.567-0.86-0.699-0.255-0.12-0.267-0.121-1.645-0.138-1.538-0.018-2.222-0.053-2.42-0.121-0.287-0.099-0.494-0.279-0.463-0.403 0.017-0.071 0.114-0.168 0.2-0.202 0.16-0.063 0.386-0.018 0.825 0.162 0.403 0.165 0.647 0.207 1.112 0.191 0.414-0.014 0.74-0.065 0.824-0.128 0.031-0.023 0.031-0.025-0.001-0.054-0.018-0.016-0.15-0.061-0.293-0.098-0.314-0.082-0.485-0.148-0.485-0.188 0-0.025 0.031-0.027 0.238-0.018 0.241 0.011 0.509 0.057 0.717 0.123 0.129 0.041 0.42 0.051 0.515 0.017 0.063-0.022 0.074-0.069 0.028-0.116-0.115-0.118-0.746-0.349-1.232-0.45-0.306-0.064-0.543-0.080-1.053-0.070-0.628 0.013-0.887 0.059-1.187 0.214-0.245 0.127-0.532 0.393-0.622 0.578-0.106 0.217-0.034 0.362 0.27 0.548 0.21 0.129 0.375 0.182 0.727 0.233 0.637 0.093 1.087 0.116 2.326 0.114 0.605-0.001 1.087 0.006 1.149 0.017 0.186 0.031 0.405 0.111 0.519 0.19 0.134 0.092 0.298 0.289 0.384 0.461 0.056 0.113 0.065 0.146 0.066 0.267 0.001 0.119-0.006 0.151-0.051 0.233-0.069 0.128-0.212 0.289-0.282 0.319-0.084 0.036-0.287-0.001-0.527-0.093-0.167-0.065-0.227-0.079-0.395-0.091-0.219-0.016-0.243-0.024-0.569-0.171-0.332-0.15-0.838-0.318-1.091-0.362-0.121-0.021-0.238 0.003-0.407 0.082-0.17 0.080-0.268 0.159-0.605 0.49-0.318 0.312-0.463 0.428-0.641 0.515-0.323 0.158-1.246 0.689-1.332 0.765-0.126 0.113-0.338 0.376-0.428 0.53-0.164 0.282-0.214 0.505-0.234 1.025-0.013 0.355-0.016 0.373-0.072 0.518-0.062 0.163-0.229 0.456-0.453 0.799-0.211 0.322-0.363 0.579-0.464 0.784-0.2 0.404-0.234 0.559-0.251 1.132l-0.013 0.423-0.065 0.194c-0.036 0.107-0.111 0.305-0.166 0.441-0.206 0.504-0.202 0.478-0.221 1.405l-0.014 0.68-0.075 0.152c-0.041 0.084-0.111 0.205-0.154 0.269-0.099 0.149-0.128 0.268-0.164 0.699-0.011 0.136-0.023 0.271-0.037 0.407-0.008 0.067-0.035 0.107-0.235 0.331-0.381 0.427-0.526 0.65-0.526 0.804 0 0.076-0.006 0.086-0.077 0.136-0.139 0.098-0.335 0.327-0.401 0.469-0.078 0.167-0.096 0.323-0.049 0.416 0.053 0.104 0.088 0.087 0.236-0.116l0.132-0.181 0.043 0.042c0.024 0.023 0.043 0.052 0.043 0.064s-0.033 0.092-0.072 0.176c-0.040 0.085-0.070 0.173-0.067 0.199 0.007 0.062 0.069 0.071 0.445 0.067 0.266-0.003 0.306-0.008 0.386-0.045zM8.985 20.974c-0.062-0.025-0.155-0.238-0.139-0.321 0.013-0.071 0.031-0.076 0.124-0.036 0.097 0.041 0.144 0.034 0.235-0.037 0.088-0.069 0.116-0.077 0.15-0.042 0.032 0.032 0.026 0.090-0.016 0.172l-0.065 0.124c-0.050 0.097-0.207 0.173-0.289 0.14zM9.564 19.24c-0.040-0.041-0.044-0.060-0.044-0.201 0-0.086-0.004-0.166-0.009-0.18s-0.001-0.037 0.009-0.052c0.015-0.023 0.027-0.018 0.073 0.032 0.045 0.049 0.069 0.060 0.129 0.060 0.051 0 0.087-0.012 0.115-0.039 0.055-0.053 0.097-0.034 0.095 0.043-0.003 0.124-0.080 0.264-0.184 0.333-0.091 0.060-0.127 0.061-0.183 0.003h-0zM15.279 19.075c-0.048-0.013-0.095-0.032-0.104-0.042-0.031-0.032-0.061-0.256-0.041-0.312 0.038-0.11 0.173-0.059 0.207 0.078 0.020 0.080 0.023 0.082 0.089 0.082 0.079 0 0.106 0.034 0.106 0.134 0 0.056-0.006 0.064-0.056 0.075-0.074 0.015-0.099 0.013-0.201-0.015zM9.939 17.55c-0.075-0.034-0.102-0.124-0.093-0.315 0.008-0.176 0.079-0.34 0.174-0.406l0.060-0.041 0.045 0.054c0.027 0.033 0.062 0.054 0.089 0.054 0.066 0 0.202-0.079 0.303-0.176 0.063-0.060 0.127-0.119 0.192-0.177 0.127-0.113 0.159-0.189 0.158-0.378-0.001-0.244-0.018-0.295-0.132-0.399s-0.159-0.198-0.16-0.333c-0-0.158 0.075-0.246 0.21-0.246 0.074 0 0.126 0.050 0.219 0.214 0.154 0.27 0.379 0.374 0.527 0.245 0.071-0.062 0.094-0.066 0.134-0.025 0.023 0.024 0.028 0.077 0.028 0.293 0 0.145 0.008 0.284 0.017 0.308 0.011 0.030 0.049 0.058 0.118 0.086 0.123 0.051 0.162 0.113 0.148 0.234-0.011 0.098-0.066 0.164-0.159 0.19-0.1 0.028-0.175 0.001-0.482-0.175-0.093-0.053-0.197-0.060-0.261-0.017-0.024 0.016-0.085 0.086-0.135 0.156-0.071 0.098-0.131 0.153-0.27 0.249-0.196 0.134-0.252 0.191-0.366 0.373-0.082 0.13-0.179 0.24-0.213 0.241-0.012 0-0.037 0.004-0.057 0.009s-0.062-0.003-0.093-0.017h0zM12.825 13.661c-0.064-0.030-0.157-0.064-0.207-0.075-0.115-0.025-0.181-0.060-0.216-0.114-0.025-0.039-0.025-0.054 0.001-0.155 0.032-0.13 0.016-0.232-0.047-0.29-0.032-0.029-0.063-0.035-0.193-0.032-0.089 0.002-0.189 0.015-0.234 0.032-0.043 0.016-0.081 0.029-0.083 0.029-0.008 0 0.012-0.174 0.029-0.242 0.012-0.048 0.035-0.079 0.080-0.108 0.107-0.068 0.122-0.107 0.11-0.291-0.014-0.222 0.013-0.331 0.083-0.332 0.009 0 0.046 0.031 0.083 0.069 0.046 0.048 0.079 0.108 0.108 0.198 0.070 0.219 0.1 0.266 0.167 0.267 0.107 0.001 0.112 0.011 0.112 0.27 0 0.283 0.017 0.327 0.204 0.516 0.288 0.291 0.288 0.395 0.002 0.259zM15.745 12.185c-0.007-0.027-0.007-0.122 0-0.211l0.012-0.162-0.051-0.034c-0.046-0.030-0.091-0.034-0.42-0.035-0.322-0.001-0.378-0.005-0.441-0.035l-0.072-0.034 0.054-0.013c0.030-0.007 0.131-0.014 0.225-0.016 0.197-0.003 0.274-0.021 0.358-0.084 0.234-0.176 0.187-0.395-0.161-0.746-0.217-0.219-0.255-0.279-0.247-0.391l0.005-0.077 0.090 0.093c0.049 0.051 0.118 0.142 0.152 0.202 0.099 0.172 0.426 0.629 0.549 0.767 0.179 0.2 0.245 0.375 0.216 0.567-0.015 0.101-0.121 0.231-0.201 0.247-0.049 0.010-0.057 0.005-0.068-0.038v0zM15.354 9.276c-0.031-0.036-0.060-0.073-0.087-0.112-0.023-0.034-0.080-0.106-0.127-0.161-0.102-0.12-0.117-0.162-0.070-0.21 0.048-0.049 0.251-0.050 0.34-0.001 0.091 0.049 0.16 0.196 0.174 0.368l0.011 0.135-0.054-0.012c-0.040-0.009-0.057-0.005-0.065 0.016-0.017 0.044-0.072 0.034-0.122-0.022zM14.827 6.686c-0.020-0.005-0.074-0.026-0.121-0.046-0.102-0.045-0.127-0.098-0.068-0.147 0.052-0.043 0.093-0.042 0.184 0.005 0.041 0.021 0.123 0.043 0.183 0.048 0.076 0.006 0.13 0.023 0.177 0.056 0.074 0.051 0.082 0.068 0.039 0.085-0.033 0.013-0.34 0.011-0.394-0.002l-0-0zM11.129 21.044c0.124-0.065 0.237-0.199 0.339-0.4 0.050-0.099 0.12-0.203 0.172-0.257 0.106-0.109 0.127-0.15 0.177-0.335 0.047-0.175 0.126-0.338 0.27-0.559 0.163-0.25 0.236-0.32 0.451-0.438 0.338-0.186 0.358-0.211 0.38-0.469 0.008-0.101 0.027-0.207 0.042-0.236 0.034-0.066 0.203-0.223 0.34-0.316l0.106-0.071h-0.498c-0.386 0-0.525 0.006-0.621 0.029-0.068 0.016-0.162 0.026-0.21 0.023l-0.087-0.006-0.112 0.285c-0.062 0.157-0.112 0.301-0.112 0.32-0.001 0.061-0.057 0.274-0.091 0.341-0.046 0.093-0.351 0.418-0.432 0.46-0.038 0.020-0.092 0.036-0.121 0.036-0.063 0-0.134 0.054-0.164 0.123-0.012 0.028-0.078 0.092-0.149 0.143-0.161 0.117-0.36 0.304-0.41 0.387-0.060 0.099-0.089 0.239-0.089 0.432-0 0.196 0.038 0.366 0.082 0.366 0.015 0 0.085-0.041 0.155-0.092 0.206-0.148 0.247-0.116 0.122 0.092-0.040 0.066-0.072 0.129-0.072 0.141 0 0.036 0.127 0.060 0.287 0.055 0.123-0.004 0.171-0.014 0.244-0.053zM11.305 20.042c-0.115-0.086-0.223-0.197-0.223-0.23 0-0.018 0.043-0.052 0.11-0.087l0.11-0.057 0.073 0.049c0.099 0.067 0.181 0.075 0.298 0.030 0.131-0.051 0.145-0.042 0.125 0.076-0.009 0.053-0.026 0.116-0.038 0.14-0.028 0.058-0.144 0.109-0.276 0.123-0.097 0.010-0.111 0.007-0.179-0.044h-0zM13.193 20.075c0.040-0.011 0.021-0.015-0.078-0.016-0.115-0.002-0.131-0.006-0.126-0.034 0.003-0.018 0.048-0.053 0.099-0.078s0.1-0.053 0.108-0.061 0.015-0.081 0.015-0.16c0-0.173 0.025-0.21 0.161-0.236 0.094-0.018 0.135-0.056 0.135-0.124 0-0.031-0.019-0.050-0.079-0.077-0.099-0.045-0.133-0.099-0.087-0.14 0.018-0.016 0.099-0.087 0.18-0.159 0.131-0.116 0.151-0.142 0.173-0.225 0.047-0.181 0.084-0.41 0.072-0.444-0.017-0.049-0.080-0.118-0.109-0.118-0.013 0-0.040-0.016-0.060-0.037-0.024-0.025-0.036-0.029-0.036-0.012 0 0.013-0.054 0.115-0.119 0.225s-0.152 0.269-0.191 0.353c-0.064 0.136-0.084 0.161-0.181 0.229-0.273 0.189-0.419 0.429-0.459 0.754-0.019 0.152-0.007 0.252 0.030 0.252 0.014 0 0.069-0.037 0.121-0.083s0.109-0.083 0.126-0.083c0.028 0 0.030 0.014 0.019 0.125l-0.012 0.126 0.060 0.020c0.070 0.023 0.163 0.025 0.24 0.005zM18.8 13.743c0.034-0.026 0.097-0.098 0.141-0.159l0.080-0.111-0.045-0.057c-0.18-0.227-0.291-0.396-0.377-0.571-0.055-0.111-0.099-0.215-0.099-0.23 0.001-0.045 0.056-0.102 0.164-0.172 0.244-0.157 0.27-0.223 0.281-0.7 0.005-0.224 0-0.387-0.013-0.459-0.029-0.154-0.113-0.321-0.224-0.446l-0.094-0.105-0.070 0.022c-0.086 0.027-0.217 0.153-0.261 0.252-0.047 0.105-0.041 0.229 0.022 0.479 0.038 0.15 0.055 0.264 0.055 0.358 0 0.166-0.007 0.209-0.084 0.532-0.078 0.326-0.101 0.505-0.101 0.777 0 0.241 0.024 0.359 0.093 0.462 0.119 0.178 0.386 0.242 0.533 0.128zM3.648 6.783c0.165-0.090 0.603-0.279 0.965-0.416l0.31-0.118v-0.253c0-0.142-0.007-0.253-0.017-0.253-0.022 0-0.549 0.219-0.726 0.301-0.078 0.036-0.149 0.066-0.157 0.066s-0.016-0.567-0.016-1.295c0-0.712-0.006-1.295-0.014-1.296s-0.132 0.056-0.276 0.124l-0.263 0.124-0.008 1.525c-0.004 0.839-0.005 1.531-0.001 1.539 0.014 0.030 0.092 0.011 0.203-0.049zM24.483 6.135c-0.003-0.361-0.011-1.056-0.018-1.545l-0.012-0.888-0.234-0.1c-0.128-0.055-0.256-0.1-0.283-0.1h-0.049v3.064l0.076 0.021c0.042 0.011 0.169 0.061 0.283 0.111s0.215 0.091 0.225 0.092c0.012 0.001 0.016-0.225 0.012-0.655zM23.49 4.181l0.003-0.856-0.202-0.068c-0.111-0.038-0.216-0.076-0.233-0.085s-0.056-0.017-0.085-0.017h-0.054l-0.002 0.776c-0.001 0.427-0.001 0.787 0.001 0.799 0.013 0.102-0.076-0.099-0.394-0.889-0.275-0.684-0.376-0.916-0.403-0.927-0.068-0.029-0.402-0.108-0.457-0.108h-0.055v3.087h0.046c0.037 0 0.388 0.083 0.515 0.122 0.030 0.009 0.031-0.039 0.020-0.933-0.008-0.652-0.006-0.937 0.007-0.925 0.010 0.010 0.208 0.489 0.44 1.065l0.422 1.047 0.408 0.131 0.011-0.68c0.006-0.374 0.012-1.066 0.014-1.537v0zM5.168 6.176c0.029-0.015 0.133-0.052 0.231-0.083s0.178-0.058 0.18-0.060c0.001-0.002 0.042-0.201 0.089-0.441l0.087-0.436 0.082-0.025c0.283-0.085 0.472-0.127 0.485-0.106 0.007 0.012 0.048 0.181 0.091 0.375s0.083 0.36 0.090 0.367 0.128-0.014 0.271-0.048c0.213-0.051 0.258-0.067 0.254-0.093-0.003-0.017-0.070-0.256-0.149-0.531s-0.261-0.909-0.404-1.409c-0.143-0.5-0.264-0.913-0.268-0.917s-0.090 0.014-0.192 0.041c-0.101 0.027-0.204 0.051-0.229 0.053-0.043 0.005-0.049 0.025-0.263 1.006-0.121 0.551-0.283 1.293-0.362 1.65-0.142 0.643-0.143 0.649-0.105 0.665 0.052 0.022 0.053 0.021 0.113-0.009zM5.839 4.756c0-0.029 0.18-0.93 0.191-0.959 0.013-0.033 0.035 0.050 0.14 0.519l0.077 0.345-0.074 0.019c-0.077 0.020-0.249 0.068-0.303 0.084-0.017 0.005-0.031 0.002-0.031-0.008v-0zM21.218 4.225l0.011-1.528-0.103-0.021c-0.097-0.020-0.194-0.041-0.291-0.063-0.104-0.023-0.203-0.042-0.22-0.041-0.030 0.001-0.032 0.068-0.036 1.105-0.004 1.070 0.002 1.961 0.014 1.973 0.014 0.014 0.594 0.125 0.604 0.115 0.006-0.006 0.016-0.699 0.022-1.539v0zM7.555 5.551c0.078-0.016 0.157-0.031 0.235-0.046 0.003 0 0.008-0.349 0.010-0.776 0.003-0.579 0.010-0.765 0.024-0.73 0.011 0.025 0.131 0.354 0.268 0.73s0.257 0.684 0.268 0.684c0.058-0.001 0.053 0.015 0.427-1.286 0.051-0.177 0.099-0.329 0.107-0.339s0.015 0.331 0.015 0.758 0.006 0.775 0.014 0.775c0.021 0 0.421-0.053 0.481-0.064l0.055-0.010-0.006-1.483c-0.003-0.816-0.010-1.511-0.016-1.545-0.009-0.058-0.013-0.061-0.067-0.052-0.154 0.027-0.412 0.052-0.452 0.044-0.025-0.005-0.049-0.004-0.053 0.003s-0.117 0.371-0.252 0.811c-0.134 0.439-0.253 0.826-0.263 0.859s-0.023 0.057-0.027 0.053c-0.004-0.004-0.121-0.342-0.259-0.75-0.086-0.254-0.172-0.508-0.258-0.762-0.005-0.014-0.072-0.007-0.22 0.022-0.117 0.024-0.238 0.043-0.268 0.043l-0.055 0.001-0.012 0.582c-0.007 0.32-0.012 1.014-0.012 1.542 0 1.027-0.005 0.965 0.075 0.979 0.006 0.001 0.115-0.019 0.241-0.044v-0zM20.183 4.030l0.005-1.537-0.041-0.009c-0.175-0.038-0.441-0.084-0.489-0.084h-0.059l0.010 0.597c0.010 0.578 0.009 0.597-0.024 0.597-0.019 0-0.168-0.021-0.331-0.046s-0.302-0.046-0.31-0.046c-0.007 0-0.014-0.273-0.014-0.606v-0.606l-0.040-0.009c-0.080-0.017-0.455-0.066-0.503-0.066h-0.049v3.080l0.283 0.038c0.156 0.021 0.288 0.035 0.294 0.032s0.007-0.322 0.002-0.708l-0.009-0.701 0.043 0.010c0.024 0.006 0.174 0.029 0.335 0.051l0.292 0.041v1.427l0.058 0.001c0.032 0.001 0.159 0.020 0.283 0.043s0.233 0.041 0.242 0.039c0.012-0.002 0.020-0.534 0.023-1.54l0 0zM17.41 5.239c0.273-0.073 0.45-0.247 0.535-0.526 0.030-0.098 0.034-0.173 0.034-0.624v-0.513h-0.826v0.089c0 0.049-0.005 0.152-0.012 0.23l-0.012 0.141h0.35l-0.006 0.245c-0.006 0.229-0.009 0.25-0.054 0.319-0.133 0.205-0.407 0.169-0.567-0.075-0.116-0.177-0.121-0.218-0.121-0.994 0-0.683 0.001-0.7 0.039-0.773 0.048-0.091 0.15-0.187 0.217-0.202 0.027-0.006 0.059-0.014 0.070-0.018 0.042-0.013 0.152 0.031 0.214 0.087 0.078 0.070 0.13 0.171 0.145 0.281l0.011 0.083h0.267c0.305 0 0.283 0.017 0.241-0.186-0.087-0.419-0.422-0.696-0.842-0.696-0.414 0-0.754 0.264-0.878 0.682-0.018 0.061-0.024 0.256-0.023 0.806 0 0.802 0.010 0.898 0.117 1.115 0.068 0.139 0.216 0.307 0.346 0.393 0.097 0.064 0.266 0.132 0.372 0.151 0.104 0.018 0.287 0.011 0.383-0.015h-0zM10.616 5.138c0.615-0.053 0.655-0.064 0.811-0.235 0.287-0.314 0.327-0.964 0.075-1.225-0.056-0.058-0.175-0.12-0.231-0.121-0.023 0-0.008-0.014 0.042-0.040 0.271-0.137 0.351-0.71 0.158-1.127-0.075-0.162-0.178-0.272-0.314-0.336l-0.101-0.047-0.297 0.022c-0.304 0.023-0.886 0.078-0.893 0.084-0.002 0.002-0.010 0.697-0.017 1.544l-0.012 1.541 0.169-0.011c0.203-0.015 0.406-0.031 0.609-0.049zM10.378 4.704c-0.007-0.008-0.014-0.206-0.014-0.44v-0.426l0.53-0.021 0.059 0.058c0.033 0.032 0.081 0.104 0.108 0.159 0.042 0.087 0.049 0.124 0.049 0.267 0 0.148-0.005 0.175-0.050 0.253-0.076 0.133-0.122 0.15-0.417 0.157-0.138 0.004-0.257 0-0.265-0.007v-0zM10.467 3.36l-0.104-0.007 0.005-0.399 0.005-0.399 0.49-0.010 0.083 0.094c0.195 0.222 0.173 0.581-0.042 0.692-0.082 0.042-0.147 0.046-0.437 0.028l-0 0zM13.063 5.074c0.375-0.081 0.632-0.352 0.676-0.711 0.009-0.074 0.015-0.465 0.012-0.87-0.005-0.811-0.008-0.837-0.125-1.066-0.068-0.134-0.24-0.313-0.364-0.381-0.119-0.065-0.276-0.11-0.417-0.12-0.314-0.022-0.658 0.216-0.831 0.574-0.123 0.255-0.129 0.319-0.115 1.157 0.014 0.788 0.021 0.854 0.112 1.025 0.166 0.312 0.626 0.483 1.051 0.391zM12.679 4.598c-0.099-0.036-0.173-0.097-0.223-0.185l-0.046-0.080-0.004-0.769-0.004-0.769 0.050-0.103c0.125-0.261 0.424-0.308 0.639-0.101 0.082 0.079 0.129 0.18 0.147 0.313 0.008 0.062 0.017 0.401 0.021 0.755 0.005 0.638 0.005 0.644-0.036 0.729-0.091 0.191-0.338 0.286-0.544 0.21zM15.913 5.059c0-0.013-0.117-0.323-0.26-0.689s-0.26-0.673-0.26-0.682 0.030-0.022 0.067-0.029c0.266-0.051 0.418-0.317 0.418-0.735 0-0.396-0.162-0.757-0.408-0.904-0.092-0.055-0.238-0.069-0.934-0.089l-0.435-0.012v3.085l0.058 0.009c0.032 0.005 0.158 0.010 0.279 0.012l0.221 0.003-0.005-1.315 0.301-0.011 0.161 0.529c0.068 0.226 0.137 0.451 0.207 0.676l0.046 0.147 0.196 0.005c0.108 0.003 0.208 0.008 0.223 0.012 0.064 0.015 0.126 0.009 0.126-0.013v0zM14.651 3.288c-0.007-0.007-0.012-0.2-0.012-0.43v-0.417l0.221-0.013c0.245-0.014 0.316 0.002 0.412 0.095 0.156 0.153 0.147 0.575-0.015 0.721l-0.062 0.056h-0.266c-0.146 0-0.271-0.006-0.278-0.012z"></path>
<path fill="#9f6b08" style="fill: var(--color4, #9f6b08)" d="M13.518 28.357c-0.6-0.374-2.096-1.598-3.101-2.537-1.649-1.541-3.303-3.605-4.43-5.529-2.404-4.104-3.653-8.889-3.8-14.56-0.043-1.656-0.040-1.708 0.116-2.039 0.207-0.438 0.393-0.567 1.379-0.955 2.723-1.070 5.597-1.565 9.533-1.642 4.444-0.087 8.119 0.452 11.076 1.625 1.025 0.406 1.207 0.532 1.415 0.972 0.157 0.332 0.16 0.381 0.116 2.075-0.241 9.312-3.419 16.219-9.903 21.523-0.786 0.643-1.607 1.23-1.811 1.295-0.101 0.032-0.287-0.040-0.59-0.229h0zM9.16 22.005c0.112-0.052 0.195-0.187 0.256-0.418 0.049-0.187 0.14-0.4 0.201-0.473 0.068-0.081 0.123-0.325 0.142-0.62 0.027-0.431 0.062-0.529 0.305-0.844 0.157-0.203 0.325-0.536 0.392-0.776 0.064-0.231 0.167-0.519 0.229-0.64 0.46-0.907 0.758-1.433 0.81-1.433 0.159 0 0.285 0.348 0.285 0.784 0 0.344 0.029 0.474 0.115 0.524 0.103 0.059 0.104 0.089 0.010 0.279-0.058 0.117-0.128 0.31-0.156 0.429-0.069 0.296-0.299 0.61-0.539 0.737-0.11 0.058-0.349 0.255-0.533 0.437-0.264 0.263-0.333 0.381-0.332 0.573 0.002 0.324 0.105 0.493 0.226 0.37 0.145-0.148 0.21-0.105 0.159 0.104-0.046 0.188-0.039 0.193 0.192 0.146 0.297-0.061 0.566-0.236 0.615-0.4 0.021-0.068 0.066-0.174 0.101-0.235s0.168-0.336 0.295-0.613c0.159-0.344 0.333-0.587 0.553-0.771 0.176-0.148 0.367-0.384 0.425-0.525 0.17-0.416 0.663-0.77 0.663-0.477 0 0.172-0.278 0.692-0.481 0.9-0.255 0.261-0.452 0.612-0.452 0.806-0 0.17 0.101 0.222 0.179 0.092s0.167-0.079 0.128 0.073c-0.032 0.124-0.002 0.147 0.184 0.147 0.369 0 0.716-0.213 0.769-0.471 0.026-0.125 0.109-0.332 0.185-0.46 0.091-0.153 0.123-0.297 0.093-0.419-0.049-0.198 0.083-0.707 0.183-0.707 0.074 0 0.334 0.548 0.401 0.845 0.027 0.121 0.113 0.292 0.19 0.379 0.131 0.148 0.188 0.156 0.834 0.119 0.668-0.038 0.699-0.048 0.872-0.266 0.13-0.164 0.191-0.349 0.22-0.671 0.052-0.567 0.295-0.953 0.854-1.354l0.418-0.3 0.103 0.164c0.057 0.091 0.179 0.355 0.272 0.588 0.156 0.389 0.162 0.453 0.078 0.787-0.050 0.2-0.070 0.433-0.043 0.517 0.027 0.086-0.009 0.314-0.080 0.516l-0.127 0.363 0.17 0.185c0.193 0.21 0.326 0.236 0.386 0.075 0.055-0.146 0.189-0.142 0.189 0.006 0 0.156 0.141 0.099 0.303-0.123 0.124-0.17 0.125-0.202 0.019-0.51-0.062-0.181-0.099-0.385-0.081-0.455s0-0.268-0.039-0.441c-0.089-0.395-0.085-0.857 0.014-1.344 0.069-0.342 0.059-0.416-0.102-0.773-0.098-0.217-0.165-0.409-0.149-0.426s0.152 0.019 0.302 0.079c0.696 0.28 1.239 0.216 1.57-0.184l0.196-0.237-0.424-0.037c-0.482-0.042-0.504-0.053-1.012-0.509-0.358-0.321-0.371-0.346-0.333-0.634 0.023-0.17-0.013-0.542-0.082-0.86-0.112-0.517-0.113-0.592-0.008-0.962 0.063-0.221 0.114-0.498 0.114-0.617 0-0.355-0.193-0.903-0.421-1.193-0.117-0.149-0.248-0.405-0.291-0.568s-0.157-0.415-0.254-0.562c-0.166-0.251-0.17-0.28-0.072-0.522 0.058-0.141 0.105-0.438 0.105-0.66 0-0.351-0.031-0.44-0.233-0.676-0.44-0.513-0.645-0.56-2.745-0.623-2.423-0.073-2.805-0.166-2.429-0.592 0.154-0.174 0.405-0.17 0.928 0.017 0.571 0.204 1.27 0.254 1.68 0.122 0.351-0.114 0.358-0.108-0.251-0.237-0.099-0.021-0.179-0.075-0.179-0.12 0-0.055 0.112-0.066 0.341-0.035 0.938 0.128 1.094 0.137 1.094 0.065 0-0.119-0.63-0.364-1.288-0.501-1.057-0.219-2.076-0.038-2.558 0.456-0.296 0.304-0.33 0.626-0.083 0.791 0.311 0.208 0.822 0.271 2.647 0.33 1.669 0.053 1.869 0.074 2.159 0.217 0.357 0.177 0.512 0.408 0.502 0.748-0.008 0.283-0.193 0.584-0.358 0.584-0.28-0-1.207-0.238-1.864-0.478-0.385-0.141-0.765-0.256-0.844-0.256-0.178 0-0.387 0.141-1.008 0.677-0.268 0.231-0.744 0.558-1.058 0.725-1.018 0.542-1.332 0.973-1.473 2.022-0.077 0.568-0.172 0.795-0.609 1.457-0.363 0.55-0.621 1.288-0.623 1.787-0.001 0.241-0.085 0.627-0.224 1.029-0.184 0.532-0.225 0.77-0.239 1.378-0.014 0.63-0.042 0.784-0.199 1.078-0.113 0.212-0.202 0.528-0.234 0.828-0.046 0.442-0.082 0.523-0.403 0.907-0.194 0.232-0.353 0.462-0.353 0.511s-0.098 0.203-0.217 0.342c-0.274 0.319-0.408 0.686-0.294 0.802 0.061 0.062 0.11 0.042 0.192-0.079 0.157-0.23 0.248-0.202 0.176 0.054-0.041 0.148-0.034 0.228 0.023 0.254 0.108 0.048 0.516-0.017 0.729-0.116zM14.652 6.589c-0.201-0.13-0.009-0.165 0.298-0.053l0.309 0.112-0.251 0.005c-0.138 0.003-0.299-0.026-0.357-0.064zM4.299 6.499c0.556-0.208 0.592-0.234 0.592-0.435 0-0.117-0.011-0.214-0.025-0.214s-0.212 0.066-0.442 0.147c-0.229 0.081-0.428 0.147-0.442 0.147s-0.025-0.579-0.025-1.286c0-0.707-0.011-1.286-0.025-1.286s-0.127 0.036-0.251 0.081l-0.226 0.081v1.544c0 1.441 0.008 1.541 0.126 1.493 0.069-0.028 0.392-0.151 0.718-0.272h-0zM24.553 5.27v-1.536l-0.226-0.081c-0.124-0.044-0.237-0.081-0.251-0.081s-0.025 0.69-0.025 1.533v1.533l0.233 0.077c0.128 0.042 0.241 0.080 0.251 0.084s0.018-0.684 0.018-1.529zM23.46 4.846l-0.019-1.52-0.395-0.108-0.001 0.82c-0.001 0.94-0.009 0.937-0.438-0.172-0.315-0.813-0.417-0.955-0.687-0.955h-0.166v1.507c0 1.156 0.021 1.507 0.090 1.507 0.049 0.001 0.161 0.021 0.249 0.045 0.157 0.043 0.159 0.033 0.179-0.851l0.020-0.895 0.392 1.003c0.216 0.551 0.442 1.032 0.502 1.068 0.285 0.171 0.293 0.13 0.273-1.449zM5.546 6.1c0.025-0.015 0.068-0.209 0.095-0.431 0.055-0.454 0.051-0.448 0.408-0.516l0.26-0.050 0.087 0.371c0.085 0.364 0.091 0.37 0.314 0.327 0.125-0.024 0.24-0.056 0.256-0.070 0.036-0.032-0.644-2.765-0.704-2.828-0.024-0.025-0.142-0.017-0.263 0.017-0.218 0.061-0.222 0.071-0.488 1.257-0.121 0.541-0.243 1.082-0.367 1.623l-0.099 0.427 0.228-0.050c0.125-0.027 0.248-0.062 0.273-0.077zM5.857 4.609c0.024-0.077 0.068-0.283 0.099-0.459l0.056-0.32 0.095 0.394c0.080 0.332 0.079 0.404-0.004 0.458-0.173 0.112-0.291 0.077-0.245-0.073l-0-0zM21.252 4.275c0-0.826-0.024-1.516-0.054-1.533s-0.143-0.053-0.251-0.079l-0.197-0.048v3.080l0.197 0.031c0.109 0.017 0.222 0.035 0.251 0.042s0.054-0.665 0.054-1.491zM7.702 5.593c0.070-0.027 0.089-0.171 0.072-0.535-0.013-0.274-0.013-0.629 0-0.789 0.021-0.27 0.044-0.23 0.302 0.548l0.279 0.84 0.518-1.883 0.020 0.825c0.018 0.71 0.036 0.819 0.131 0.782 0.061-0.024 0.173-0.044 0.249-0.044 0.131 0 0.138-0.071 0.138-1.529v-1.528l-0.245 0.029c-0.24 0.029-0.249 0.042-0.435 0.665-0.104 0.35-0.232 0.768-0.283 0.93l-0.094 0.294-0.234-0.772c-0.128-0.424-0.259-0.8-0.29-0.834s-0.156-0.040-0.279-0.013l-0.222 0.050v1.501c0 1.43 0.006 1.501 0.138 1.501 0.076 0 0.181-0.017 0.233-0.037zM20.159 4.032l-0.019-1.525-0.395-0.046v1.187l-0.305-0.044c-0.501-0.072-0.484-0.049-0.484-0.691 0-0.423-0.025-0.59-0.090-0.591-0.049-0.001-0.162-0.021-0.251-0.045l-0.161-0.044v3.088l0.502 0.060v-0.683c0-0.757-0.023-0.728 0.52-0.636l0.269 0.046v0.683c0 0.589 0.017 0.688 0.126 0.717 0.316 0.085 0.309 0.124 0.288-1.474h0zM11.127 5.090c0.295-0.144 0.462-0.449 0.468-0.852 0.004-0.283-0.030-0.404-0.149-0.526-0.154-0.157-0.154-0.16-0.018-0.388 0.165-0.277 0.175-0.567 0.029-0.855-0.135-0.268-0.482-0.365-1.076-0.302l-0.431 0.046-0.019 1.532-0.019 1.532 0.522-0.052c0.287-0.028 0.6-0.090 0.695-0.136zM10.416 4.321c0-0.382 0.019-0.442 0.151-0.477 0.402-0.108 0.693 0.3 0.485 0.68-0.077 0.141-0.171 0.195-0.37 0.212l-0.267 0.023v-0.437zM10.416 3.020v-0.402h0.237c0.287 0 0.409 0.111 0.409 0.373 0 0.234-0.098 0.325-0.413 0.386l-0.233 0.045v-0.402zM17.711 5.079c0.19-0.128 0.311-0.521 0.312-1.012 0-0.386-0.006-0.392-0.52-0.442l-0.341-0.034v0.248c0 0.216 0.023 0.248 0.179 0.248 0.145 0 0.179 0.036 0.179 0.189 0 0.435-0.342 0.629-0.598 0.339-0.352-0.398-0.273-1.914 0.105-2.037 0.158-0.051 0.421 0.141 0.421 0.308 0 0.064 0.089 0.099 0.251 0.099 0.285 0 0.317-0.098 0.144-0.44-0.152-0.301-0.381-0.442-0.718-0.442-0.616 0-0.895 0.471-0.892 1.506 0.002 0.685 0.104 1.117 0.323 1.365 0.254 0.287 0.806 0.337 1.154 0.104v-0zM13.272 5.001c0.088-0.063 0.231-0.253 0.317-0.423 0.225-0.442 0.229-1.553 0.008-2.048-0.151-0.337-0.443-0.575-0.708-0.575-0.251 0-0.589 0.237-0.745 0.522-0.334 0.608-0.268 1.953 0.118 2.422 0.15 0.183 0.23 0.216 0.514 0.216 0.189 0 0.407-0.050 0.497-0.115zM12.589 4.476c-0.093-0.145-0.133-0.379-0.149-0.864-0.018-0.569 0-0.7 0.127-0.909 0.186-0.304 0.419-0.295 0.575 0.023 0.162 0.329 0.149 1.486-0.019 1.749-0.162 0.254-0.373 0.254-0.535 0zM14.65 4.431c0-0.621 0.007-0.647 0.154-0.625 0.122 0.019 0.199 0.155 0.375 0.666l0.222 0.643h0.537l-0.471-1.385 0.193-0.186c0.235-0.227 0.309-0.559 0.208-0.94-0.112-0.426-0.393-0.574-1.088-0.574l-0.553-0-0.021 1.513c-0.011 0.832-0.015 1.518-0.009 1.525s0.112 0.012 0.233 0.012h0.221v-0.648zM14.704 3.31c-0.030-0.030-0.054-0.236-0.054-0.457v-0.402l0.303 0.042c0.43 0.059 0.611 0.363 0.397 0.664-0.097 0.135-0.557 0.245-0.646 0.154zM1.242 5.336c0-0.101 0.016-0.142 0.036-0.092s0.020 0.133 0 0.184c-0.020 0.051-0.036 0.009-0.036-0.092h-0zM1.252 4.675c0-0.222 0.014-0.313 0.030-0.202s0.016 0.293 0 0.404-0.030 0.020-0.030-0.202v-0z"></path>
<path fill="#040404" style="fill: var(--color1, #040404)" d="M13.312 27.999c-1.764-1.289-3.965-3.385-5.202-4.953-3.737-4.735-5.507-10.063-5.772-17.38-0.071-1.944 0.027-2.183 1.078-2.634 2.748-1.178 6.281-1.767 10.588-1.765 3.247 0.001 5.514 0.258 8.001 0.907 1.127 0.294 2.705 0.855 3.104 1.104 0.298 0.186 0.502 0.529 0.565 0.953 0.063 0.422-0.080 3.399-0.227 4.706-0.756 6.749-3.177 11.973-7.573 16.341-1.412 1.403-3.551 3.133-3.874 3.133-0.069 0-0.38-0.186-0.69-0.412zM9.175 22.021c0.169-0.105 0.243-0.217 0.28-0.422 0.028-0.154 0.11-0.358 0.183-0.454 0.097-0.128 0.133-0.299 0.133-0.635 0-0.429 0.019-0.484 0.289-0.817 0.198-0.245 0.343-0.535 0.46-0.924 0.094-0.312 0.234-0.659 0.312-0.772s0.242-0.411 0.366-0.664c0.124-0.253 0.253-0.459 0.287-0.459 0.152 0 0.253 0.257 0.238 0.61-0.019 0.45 0.032 0.64 0.171 0.64 0.091 0 0.090 0.029-0.005 0.217-0.060 0.119-0.11 0.258-0.11 0.308 0 0.225-0.318 0.732-0.55 0.879-0.139 0.088-0.325 0.23-0.413 0.315-0.102 0.098-0.208 0.192-0.316 0.283-0.146 0.119-0.193 0.324-0.158 0.681 0.021 0.212 0.128 0.304 0.232 0.198 0.135-0.139 0.214-0.103 0.129 0.059-0.070 0.133-0.055 0.147 0.159 0.147 0.27-0 0.702-0.242 0.702-0.393 0-0.101 0.508-1.137 0.685-1.397 0.051-0.075 0.193-0.199 0.315-0.275s0.276-0.262 0.343-0.414c0.161-0.366 0.374-0.607 0.535-0.607 0.072 0 0.131 0.017 0.131 0.039 0 0.124-0.441 0.905-0.532 0.941-0.134 0.053-0.494 0.764-0.435 0.861 0.056 0.093 0.25 0.091 0.25-0.003 0-0.040 0.031-0.073 0.069-0.073s0.050 0.053 0.025 0.118c-0.063 0.168 0.095 0.24 0.38 0.174 0.374-0.086 0.601-0.268 0.601-0.48 0-0.102 0.069-0.281 0.154-0.398 0.118-0.163 0.144-0.275 0.111-0.48-0.041-0.262 0.060-0.624 0.175-0.624 0.083 0 0.248 0.347 0.348 0.735 0.141 0.541 0.196 0.572 1.014 0.572 0.543 0 0.739-0.026 0.803-0.108 0.047-0.059 0.147-0.177 0.223-0.262 0.099-0.11 0.141-0.275 0.15-0.575 0.010-0.351 0.052-0.478 0.257-0.77 0.307-0.437 0.905-0.878 1.038-0.765 0.051 0.043 0.178 0.298 0.283 0.567 0.173 0.443 0.183 0.518 0.105 0.802-0.047 0.173-0.069 0.406-0.048 0.518s-0.007 0.316-0.063 0.452c-0.143 0.35-0.127 0.504 0.075 0.711 0.219 0.224 0.313 0.227 0.393 0.015l0.062-0.165 0.068 0.18 0.068 0.18 0.191-0.195c0.215-0.22 0.238-0.409 0.087-0.708-0.057-0.113-0.085-0.278-0.063-0.367s-0-0.36-0.051-0.604c-0.074-0.359-0.075-0.556-0-1.045 0.087-0.571 0.084-0.618-0.061-0.894-0.231-0.441-0.204-0.483 0.207-0.323 0.621 0.242 1.275 0.141 1.533-0.236 0.181-0.264 0.151-0.362-0.096-0.312-0.381 0.078-0.685-0.036-1.109-0.416l-0.408-0.365-0.037-0.644c-0.039-0.676-0.041-1.069-0.011-2.138 0.018-0.647 0.017-0.651-0.266-1.084-0.156-0.239-0.337-0.593-0.402-0.786s-0.19-0.43-0.278-0.525c-0.152-0.165-0.154-0.185-0.045-0.4 0.342-0.678 0.138-1.347-0.528-1.726l-0.389-0.221-1.836-0.058c-2.329-0.074-2.768-0.16-2.586-0.509 0.119-0.228 0.374-0.237 0.997-0.036 0.632 0.204 1.325 0.248 1.716 0.109 0.263-0.094 0.234-0.213-0.052-0.213-0.109 0-0.26-0.051-0.337-0.114-0.13-0.107-0.121-0.112 0.148-0.075 0.878 0.12 1.184 0.133 1.184 0.049 0-0.047-0.137-0.146-0.305-0.219-1.039-0.453-2.355-0.502-3.109-0.116-0.383 0.196-0.748 0.578-0.748 0.783 0 0.135 0.35 0.417 0.619 0.499 0.153 0.046 1.118 0.116 2.144 0.155 2.014 0.077 2.352 0.14 2.619 0.486 0.194 0.252 0.185 0.625-0.019 0.869l-0.163 0.194-0.559-0.118c-0.308-0.065-0.84-0.221-1.182-0.347-1.075-0.395-1.080-0.394-1.932 0.335-0.288 0.246-0.852 0.632-1.254 0.857-1.022 0.572-1.228 0.901-1.386 2.215-0.030 0.246-0.147 0.511-0.408 0.919-0.55 0.86-0.705 1.257-0.777 1.988-0.037 0.379-0.152 0.898-0.28 1.267-0.181 0.52-0.217 0.737-0.218 1.295-0.001 0.571-0.027 0.718-0.175 0.992-0.095 0.177-0.194 0.487-0.219 0.689-0.077 0.623-0.102 0.685-0.427 1.059-0.174 0.2-0.339 0.44-0.367 0.534s-0.144 0.278-0.256 0.41c-0.228 0.268-0.319 0.539-0.245 0.733 0.043 0.113 0.072 0.101 0.23-0.092l0.181-0.22-0.046 0.276-0.046 0.276 0.308-0c0.179-0 0.405-0.060 0.538-0.143zM14.683 6.581c-0.074-0.123-0.016-0.13 0.254-0.028l0.251 0.095-0.229 0.006c-0.126 0.003-0.25-0.030-0.276-0.073zM3.696 12.887c-0.336-1.764-0.557-3.766-0.668-6.044-0.117-2.396-0.119-2.424-0.253-2.634-0.069-0.108-0.154-0.196-0.189-0.196-0.208 0 0.063 4.169 0.411 6.32 0.199 1.233 0.647 3.087 0.745 3.087 0.030 0 0.010-0.24-0.046-0.533zM4.962 6.053c0-0.152-0.011-0.276-0.024-0.276s-0.213 0.066-0.442 0.147c-0.23 0.081-0.434 0.13-0.455 0.109s-0.051-0.583-0.069-1.25c-0.018-0.666-0.058-1.212-0.090-1.212s-0.141 0.032-0.242 0.072l-0.184 0.072v3.157l1.507-0.544 0-0.276zM24.501 3.712c-0.030-0.030-0.144-0.078-0.253-0.105l-0.197-0.050v3.102l0.466 0.195 0.019-1.543c0.011-0.849-0.005-1.568-0.036-1.599h-0zM23.549 4.9c0-0.846-0.024-1.553-0.054-1.571s-0.162-0.056-0.294-0.085l-0.24-0.053 0.025 0.742c0.014 0.408 0.009 0.742-0.011 0.742s-0.174-0.356-0.342-0.79c-0.375-0.967-0.359-0.943-0.645-1.006l-0.233-0.052v1.545c0 0.85 0.024 1.559 0.054 1.576s0.143 0.053 0.251 0.079l0.197 0.048v-0.861c0-0.474 0.027-0.83 0.060-0.791s0.216 0.478 0.407 0.977c0.338 0.883 0.435 1.020 0.735 1.035 0.069 0.004 0.090-0.35 0.090-1.534v-0zM5.38 6.212c0.2-0.071 0.232-0.126 0.306-0.507 0.075-0.391 0.101-0.431 0.298-0.471 0.324-0.066 0.326-0.065 0.375 0.233 0.071 0.428 0.112 0.466 0.419 0.379 0.146-0.041 0.266-0.093 0.266-0.114s-0.125-0.508-0.277-1.080c-0.153-0.573-0.32-1.216-0.373-1.43-0.094-0.38-0.1-0.387-0.315-0.341-0.12 0.026-0.242 0.069-0.271 0.096-0.052 0.049-0.772 3.053-0.773 3.224-0.001 0.112 0.058 0.115 0.345 0.012v-0zM5.923 4.514c0.024-0.124 0.044-0.277 0.044-0.341 0-0.186 0.12-0.002 0.167 0.255 0.035 0.191 0.017 0.238-0.106 0.271-0.132 0.035-0.143 0.015-0.104-0.185zM25.552 4.785c0.005-0.53-0.045-0.845-0.132-0.845-0.027 0-0.108 0.043-0.179 0.097-0.124 0.093-0.124 0.131-0.007 0.9 0.067 0.442 0.14 0.853 0.163 0.914 0.059 0.159 0.149-0.464 0.155-1.066v-0zM21.252 4.28v-1.571l-0.227-0.046c-0.125-0.026-0.233-0.038-0.241-0.028s-0.036 0.702-0.062 1.536l-0.047 1.517 0.271 0.074c0.149 0.040 0.279 0.077 0.289 0.081s0.018-0.699 0.018-1.563zM7.671 5.657c0.153-0.042 0.162-0.083 0.168-0.752l0.007-0.708 0.233 0.717c0.128 0.395 0.251 0.735 0.272 0.757s0.104-0.185 0.184-0.46c0.084-0.289 0.168-0.578 0.252-0.867l0.107-0.367 0.008 0.742 0.008 0.742 0.538-0.090-0.027-1.542c-0.015-0.848-0.035-1.552-0.046-1.564s-0.127 0.006-0.258 0.041c-0.233 0.062-0.245 0.085-0.489 0.933l-0.25 0.869-0.261-0.8c-0.257-0.79-0.263-0.8-0.47-0.775-0.115 0.014-0.231 0.047-0.259 0.073s-0.060 0.735-0.072 1.574c-0.024 1.647-0.038 1.586 0.355 1.478zM20.248 4.091c0-0.846-0.024-1.554-0.054-1.573s-0.151-0.045-0.269-0.059l-0.215-0.026-0.021 0.569c-0.021 0.565-0.022 0.57-0.215 0.569-0.485-0.002-0.51-0.035-0.532-0.687l-0.021-0.598-0.466-0.046v1.54c0 1.647-0.004 1.629 0.362 1.629 0.121 0 0.137-0.071 0.155-0.68l0.021-0.68 0.287 0.025c0.158 0.014 0.311 0.041 0.341 0.059s0.054 0.344 0.054 0.723v0.689l0.233 0.030c0.128 0.016 0.257 0.035 0.287 0.041s0.054-0.681 0.054-1.527zM11.114 5.147c0.47-0.195 0.671-0.92 0.387-1.396-0.116-0.194-0.121-0.244-0.036-0.363 0.135-0.188 0.125-0.773-0.016-0.98-0.173-0.254-0.431-0.321-1.014-0.265l-0.522 0.050v3.147l0.485-0.048c0.266-0.027 0.589-0.092 0.716-0.145zM10.445 4.647c-0.021-0.056-0.028-0.246-0.016-0.423 0.020-0.29 0.042-0.323 0.224-0.344 0.282-0.033 0.408 0.103 0.408 0.439 0 0.24-0.030 0.298-0.184 0.358-0.254 0.099-0.388 0.090-0.433-0.030l-0 0zM10.416 3.029c0-0.28 0.023-0.329 0.174-0.367 0.242-0.062 0.394 0.014 0.445 0.224 0.058 0.236-0.147 0.467-0.415 0.467-0.193 0-0.204-0.017-0.204-0.323zM17.622 5.179c0.26-0.121 0.401-0.488 0.401-1.038v-0.475l-0.333-0.047c-0.523-0.073-0.528-0.071-0.528 0.211 0 0.208 0.027 0.257 0.143 0.257 0.209 0 0.211 0.556 0.003 0.624-0.365 0.119-0.576-0.292-0.576-1.122-0.001-0.617 0.144-0.971 0.397-0.971 0.145 0 0.209 0.052 0.272 0.225 0.077 0.208 0.102 0.222 0.335 0.177 0.138-0.026 0.262-0.058 0.274-0.070s-0.024-0.136-0.081-0.275c-0.315-0.772-1.245-0.83-1.561-0.098-0.191 0.442-0.249 1.149-0.138 1.694 0.121 0.596 0.489 0.993 0.921 0.993 0.161 0 0.373-0.038 0.471-0.084v-0zM13.257 5.051c0.32-0.2 0.481-0.605 0.518-1.301 0.059-1.122-0.29-1.794-0.931-1.794-0.231 0-0.336 0.049-0.526 0.243-0.317 0.324-0.415 0.737-0.382 1.595 0.022 0.56 0.059 0.752 0.186 0.962 0.263 0.436 0.719 0.554 1.135 0.294zM12.684 4.561c-0.368-0.377-0.303-1.9 0.088-2.053 0.457-0.18 0.673 1.557 0.253 2.032-0.145 0.164-0.198 0.167-0.341 0.021zM15.942 5.13c0-0.033-0.096-0.352-0.214-0.708l-0.214-0.648 0.222-0.259c0.202-0.235 0.219-0.295 0.19-0.652-0.054-0.662-0.411-0.905-1.329-0.906l-0.449-0v3.16h0.574v-0.661c0-0.882 0.12-0.883 0.429-0.004 0.204 0.578 0.254 0.661 0.421 0.687 0.339 0.053 0.369 0.053 0.369-0.008zM14.722 2.893v-0.394l0.249 0.030c0.313 0.037 0.413 0.16 0.384 0.469-0.022 0.23-0.040 0.245-0.328 0.266l-0.305 0.023 0-0.394zM3.165 3.554c0.005-0.097-0.247-0.059-0.417 0.063l-0.165 0.118 0.327 0.357 0.126-0.241c0.069-0.133 0.127-0.266 0.129-0.296v-0z"></path>
<path fill="#040404" style="fill: var(--color1, #040404)" d="M12.926 27.649c-5.045-3.886-8.165-8.658-9.612-14.699-0.582-2.43-0.934-5.431-0.934-7.952 0-1.376 0.096-1.527 1.275-2.007 3.786-1.54 9.405-2.083 14.872-1.436 2.767 0.327 6.268 1.351 6.819 1.994 0.224 0.261 0.276 0.409 0.124 0.353-0.049-0.018-0.164 0.025-0.254 0.097-0.164 0.13-0.164 0.132-0.060 0.752 0.057 0.342 0.127 0.977 0.155 1.412s0.075 0.79 0.105 0.79c0.095 0 0.142-0.523 0.159-1.764l0.016-1.213 0.025 0.992c0.047 1.863-0.222 4.633-0.667 6.876-0.831 4.182-2.444 7.796-4.887 10.945-1.541 1.986-5.436 5.548-6.067 5.548-0.106 0-0.516-0.264-1.067-0.689h-0zM14.657 27.74c0.936-0.619 1.852-1.407 2.908-2.502 1.449-1.502 2.288-2.505 2.578-3.079 0.089-0.176 0.084-0.209-0.041-0.325-0.135-0.126-0.168-0.1-1.128 0.87-1.199 1.212-2.029 1.898-2.029 1.676 0-0.131-0.929-0.67-1.483-0.861-0.991-0.341-2.066-0.309-2.944 0.085l-0.373 0.168-0.119-0.417c-0.337-1.177-0.527-2.742-0.347-2.863 0.043-0.029 0.169-0.259 0.279-0.512 0.143-0.328 0.306-0.552 0.573-0.785 0.226-0.198 0.4-0.42 0.44-0.563 0.068-0.243 0.385-0.546 0.521-0.498 0.117 0.041-0.141 0.567-0.467 0.953-0.157 0.186-0.328 0.444-0.381 0.574-0.083 0.206-0.081 0.252 0.020 0.355 0.106 0.109 0.12 0.107 0.169-0.023 0.048-0.129 0.057-0.125 0.095 0.042 0.055 0.241 0.269 0.268 0.669 0.087 0.279-0.126 0.321-0.177 0.361-0.436 0.025-0.161 0.097-0.337 0.159-0.39 0.076-0.065 0.108-0.194 0.095-0.395-0.019-0.313 0.060-0.703 0.143-0.703 0.086 0 0.28 0.397 0.332 0.68 0.028 0.152 0.114 0.359 0.191 0.459 0.134 0.174 0.178 0.183 0.88 0.183h0.74l0.204-0.274c0.158-0.213 0.207-0.361 0.215-0.659 0.015-0.521 0.277-0.963 0.798-1.345l0.409-0.3 0.117 0.158c0.064 0.087 0.185 0.354 0.269 0.592 0.119 0.339 0.137 0.477 0.079 0.63-0.040 0.108-0.085 0.397-0.1 0.641s-0.049 0.564-0.075 0.71c-0.042 0.231-0.023 0.285 0.148 0.423 0.247 0.199 0.309 0.198 0.389-0.008 0.047-0.12 0.066-0.131 0.069-0.041 0.008 0.21 0.15 0.23 0.339 0.049 0.153-0.147 0.174-0.217 0.137-0.467-0.024-0.162-0.071-0.509-0.105-0.772s-0.086-0.537-0.115-0.609c-0.029-0.072-0.012-0.436 0.038-0.809 0.087-0.646 0.084-0.692-0.063-0.986-0.21-0.422-0.197-0.488 0.073-0.345 0.311 0.165 1.004 0.221 1.28 0.104 0.234-0.099 0.502-0.397 0.502-0.558 0-0.072-0.087-0.087-0.341-0.057-0.283 0.033-0.379 0.011-0.567-0.132-0.173-0.132-0.347-0.262-0.522-0.393-0.281-0.21-0.293-0.235-0.255-0.523 0.023-0.172-0.011-0.533-0.078-0.836-0.065-0.293-0.099-0.637-0.076-0.763s0.075-0.388 0.114-0.582c0.098-0.487-0.019-0.985-0.354-1.504-0.149-0.232-0.313-0.554-0.363-0.715s-0.153-0.385-0.23-0.497c-0.134-0.195-0.134-0.217-0.018-0.578 0.231-0.711-0.007-1.289-0.665-1.617-0.319-0.159-0.463-0.175-2.101-0.223-1.575-0.047-2.394-0.125-2.589-0.249-0.133-0.085-0.064-0.331 0.117-0.416 0.154-0.072 0.284-0.052 0.807 0.127 0.668 0.227 1.37 0.274 1.758 0.117 0.258-0.104 0.2-0.197-0.16-0.256-0.157-0.026-0.304-0.080-0.329-0.12-0.061-0.101 0.092-0.092 0.641 0.038 0.444 0.105 0.83 0.088 0.83-0.037 0-0.081-0.606-0.336-1.123-0.472-0.583-0.154-1.625-0.152-2.098 0.005-0.436 0.144-0.906 0.534-0.973 0.806-0.060 0.246 0.141 0.482 0.518 0.61 0.151 0.051 1.141 0.131 2.277 0.183 2.135 0.099 2.33 0.137 2.579 0.501 0.164 0.239 0.14 0.604-0.054 0.835-0.163 0.194-0.174 0.196-0.556 0.11-0.214-0.049-0.811-0.229-1.325-0.4-0.725-0.242-0.983-0.298-1.148-0.252-0.117 0.033-0.455 0.274-0.751 0.536-0.298 0.264-0.852 0.645-1.24 0.855-0.989 0.534-1.292 0.949-1.415 1.937-0.069 0.556-0.188 0.843-0.687 1.653-0.341 0.553-0.533 1.113-0.533 1.552 0 0.226-0.097 0.666-0.251 1.137-0.212 0.649-0.251 0.871-0.251 1.422 0 0.553-0.028 0.708-0.179 1.009-0.099 0.196-0.198 0.521-0.22 0.723-0.067 0.606-0.083 0.644-0.459 1.099-0.199 0.241-0.362 0.497-0.362 0.569s-0.031 0.132-0.069 0.132c-0.12 0-0.433 0.54-0.433 0.747 0 0.277 0.138 0.336 0.296 0.127l0.133-0.176-0.044 0.239c-0.038 0.207-0.025 0.239 0.105 0.239 0.103 0 0.21 0.108 0.344 0.349 0.759 1.362 2.435 3.362 3.687 4.4 0.632 0.524 1.498 1.13 1.617 1.13 0.046 0 0.29-0.137 0.543-0.304h0zM9.768 20.959c0.039-0.106 0.068-0.355 0.063-0.554-0.007-0.298 0.030-0.412 0.207-0.642 0.273-0.356 0.412-0.637 0.521-1.049 0.093-0.352 0.841-1.84 0.925-1.84 0.15 0 0.223 0.222 0.223 0.672 0 0.372 0.028 0.512 0.111 0.56 0.183 0.105-0.078 0.853-0.413 1.186-0.434 0.431-0.653 0.624-0.862 0.758-0.142 0.091-0.21 0.209-0.243 0.423-0.025 0.163-0.072 0.296-0.103 0.296s-0.157 0.086-0.279 0.191l-0.222 0.191 0.071-0.192zM14.722 6.586c-0.089-0.059-0.083-0.071 0.036-0.067 0.079 0.002 0.208 0.032 0.287 0.067 0.131 0.058 0.128 0.063-0.036 0.067-0.099 0.002-0.228-0.028-0.287-0.067zM4.559 15.937c-0.134-0.434-0.388-1.385-0.563-2.113-0.602-2.493-0.803-4.173-1.010-8.425-0.035-0.723-0.075-0.98-0.181-1.157-0.16-0.269-0.279-0.295-0.286-0.063-0.092 3.017 0.394 6.855 1.222 9.656 0.359 1.216 0.946 2.892 1.013 2.892 0.028 0-0.059-0.355-0.194-0.79zM6.792 11.622c1.396-0.376 2.699-1.477 3.308-2.795 0.075-0.162 0.138-0.31 0.142-0.331s0.067-0.235 0.141-0.478c0.101-0.327 0.136-0.669 0.138-1.323 0.003-0.989-0.049-1.282-0.232-1.295-0.068-0.005 0.061-0.037 0.287-0.071 0.779-0.117 1.060-0.405 1.060-1.084 0-0.249-0.043-0.418-0.138-0.537-0.129-0.163-0.13-0.182-0.018-0.31 0.078-0.089 0.12-0.264 0.12-0.502 0-0.32-0.029-0.392-0.234-0.58-0.247-0.226-0.568-0.271-1.183-0.167l-0.269 0.046v0.976c0 0.537-0.020 1.029-0.044 1.093s-0.121 0.116-0.215 0.116h-0.172v-1.066c0-1.056-0.001-1.066-0.162-1.065-0.418 0.003-0.449 0.044-0.702 0.937l-0.242 0.854-0.504-1.572-0.253 0.047c-0.139 0.026-0.278 0.061-0.307 0.078s-0.054 0.489-0.054 1.048v1.016l-0.19 0.049c-0.104 0.027-0.213 0.022-0.241-0.010s-0.151-0.452-0.273-0.931c-0.122-0.48-0.237-0.887-0.254-0.905s-0.146-0.011-0.286 0.016l-0.254 0.049-0.189 0.819c-0.341 1.482-0.275 1.344-0.7 1.446-0.207 0.050-0.481 0.134-0.609 0.187l-0.233 0.097v-0.996c0-0.881-0.013-0.991-0.114-0.951-0.063 0.025-0.194 0.065-0.291 0.090l-0.176 0.045 0.028 1.663c0.030 1.834 0.122 2.498 0.582 4.207 0.351 1.304 0.668 2.117 0.858 2.202 0.214 0.096 1.357 0.026 1.877-0.114zM5.924 4.559c0.024-0.064 0.044-0.186 0.044-0.272 0-0.201 0.11-0.082 0.171 0.186 0.040 0.172 0.024 0.202-0.106 0.202-0.11 0-0.14-0.033-0.109-0.116h-0zM10.488 4.316c0-0.306 0.023-0.365 0.155-0.4 0.249-0.067 0.419 0.072 0.419 0.343 0 0.294-0.11 0.416-0.373 0.416-0.193 0-0.201-0.015-0.201-0.359zM7.881 4.552c-0.026-0.027-0.047-0.101-0.046-0.165 0.002-0.096 0.016-0.092 0.078 0.018 0.077 0.136 0.055 0.237-0.033 0.148v-0zM8.849 4.308c0-0.101 0.016-0.142 0.036-0.092s0.020 0.133 0 0.184c-0.020 0.051-0.036 0.009-0.036-0.092zM10.488 3.022c0-0.329 0.001-0.331 0.251-0.331 0.252 0 0.293 0.058 0.255 0.367-0.017 0.143-0.211 0.294-0.376 0.294-0.106 0-0.13-0.061-0.13-0.331v0zM24.334 9.676c0.202-0.514 0.508-2.381 0.504-3.072-0.002-0.263-0.055-0.534-0.141-0.717-0.115-0.244-0.139-0.459-0.141-1.255l-0.002-0.961-0.498-0.157-0.020 0.893c-0.019 0.845-0.028 0.891-0.164 0.871-0.324-0.049-0.323-0.047-0.323-1.032v-0.949l-0.224-0.046c-0.123-0.025-0.253-0.046-0.287-0.046s-0.064 0.322-0.066 0.717l-0.003 0.716-0.327-0.808c-0.18-0.445-0.348-0.83-0.374-0.856s-0.152-0.070-0.28-0.098l-0.233-0.050v0.961c0 0.954-0.001 0.961-0.165 0.961-0.301 0-0.337-0.12-0.337-1.108 0-0.905-0.005-0.933-0.162-0.976-0.42-0.115-0.413-0.133-0.413 0.954v1.001l-0.162-0.044c-0.089-0.024-0.186-0.045-0.215-0.045s-0.054-0.46-0.054-1.021v-1.020l-0.224-0.046c-0.123-0.025-0.253-0.046-0.287-0.046s-0.063 0.265-0.063 0.588c0 0.634 0.004 0.629-0.419 0.542l-0.222-0.045-0.021-0.598-0.021-0.598-0.538-0.046v3.153l0.253 0.030c0.139 0.017 0.269 0.015 0.287-0.004s0.034-0.327 0.034-0.684c0-0.702-0.007-0.691 0.422-0.603l0.224 0.046 0.005 0.56c0.005 0.622 0.105 2.022 0.161 2.251 0.278 1.138 1.169 2.191 2.213 2.613 0.553 0.224 0.877 0.279 1.584 0.27 0.6-0.008 0.628-0.016 0.699-0.196zM22.369 4.877c-0.075-0.253-0.092-0.419-0.040-0.386 0.096 0.061 0.217 0.478 0.138 0.478-0.039 0-0.083-0.041-0.098-0.092zM17.717 5.148c0.231-0.155 0.306-0.395 0.306-0.983 0-0.558-0.030-0.589-0.592-0.591-0.266-0.001-0.269 0.002-0.269 0.293 0 0.245 0.024 0.294 0.143 0.294 0.11 0 0.144 0.049 0.144 0.211 0 0.31-0.167 0.426-0.393 0.274s-0.289-0.384-0.289-1.077c0-0.841 0.319-1.232 0.595-0.729 0.105 0.19 0.159 0.22 0.373 0.202 0.225-0.018 0.25-0.041 0.238-0.224-0.032-0.478-0.596-0.879-1.067-0.758-0.282 0.072-0.574 0.426-0.668 0.807-0.175 0.713-0.044 1.701 0.282 2.126 0.259 0.337 0.816 0.409 1.197 0.153zM13.345 5.006c0.301-0.26 0.454-0.707 0.465-1.358 0.018-1.076-0.316-1.692-0.918-1.692-0.635 0-1.003 0.606-1.003 1.654 0 0.681 0.163 1.205 0.445 1.432 0.268 0.216 0.739 0.199 1.012-0.036h-0zM12.632 4.48c-0.065-0.080-0.106-0.364-0.119-0.827-0.022-0.78 0.061-1.057 0.329-1.096 0.263-0.039 0.396 0.395 0.36 1.173-0.031 0.657-0.116 0.871-0.345 0.871-0.069 0-0.17-0.055-0.224-0.121zM14.707 4.51c0.028-0.859 0.145-0.854 0.45 0.018l0.231 0.661h0.313c0.172 0 0.312-0.008 0.311-0.018s-0.109-0.328-0.239-0.705l-0.236-0.687 0.203-0.207c0.169-0.173 0.203-0.27 0.203-0.577 0-0.762-0.247-0.979-1.166-1.025l-0.628-0.031v1.583c0 1.687-0.003 1.675 0.359 1.646 0.175-0.014 0.18-0.030 0.2-0.657zM14.722 2.911c0-0.367 0.001-0.367 0.237-0.367 0.285 0 0.409 0.111 0.409 0.367s-0.124 0.367-0.409 0.367c-0.236 0-0.237-0.001-0.237-0.367zM3.025 3.99c0-0.049 0.082-0.212 0.182-0.363 0.146-0.22 0.16-0.274 0.069-0.274-0.124 0-0.681 0.274-0.681 0.335 0 0.021 0.070 0.135 0.155 0.253 0.15 0.208 0.276 0.231 0.276 0.049v-0zM7.203 2.289c3.004-0.496 5.981-0.652 9.134-0.478 1.288 0.071 3.473 0.289 4.342 0.432 0.377 0.062 0.499 0.053 0.416-0.033-0.061-0.063-1.746-0.384-2.641-0.504-1.679-0.224-3.008-0.284-5.414-0.246-2.504 0.040-3.562 0.134-5.207 0.462-1.218 0.243-2.244 0.547-1.844 0.547 0.065 0 0.611-0.082 1.214-0.181z"></path>
</symbol>
<symbol id="icon-YOUTUBE" viewBox="0 0 45 32">
<path fill="none" stroke="#fff" style="stroke: var(--color2, #fff)" stroke-linejoin="round" stroke-linecap="round" stroke-miterlimit="4" stroke-width="1" d="M43.045 5.691c-0.245-0.909-0.725-1.737-1.391-2.403s-1.496-1.144-2.407-1.389c-2.488-0.959-26.587-1.429-33.579 0.027-0.91 0.245-1.74 0.724-2.407 1.389s-1.146 1.494-1.391 2.403c-1.123 4.918-1.208 15.551 0.028 20.58 0.245 0.909 0.725 1.737 1.391 2.403s1.496 1.144 2.407 1.389c4.927 1.132 28.349 1.291 33.578 0 0.91-0.244 1.74-0.724 2.407-1.389s1.146-1.494 1.391-2.403c1.197-5.358 1.282-15.332-0.028-20.608v0z"></path>
<path fill="none" stroke="#fff" style="stroke: var(--color2, #fff)" stroke-linejoin="round" stroke-linecap="round" stroke-miterlimit="4" stroke-width="1" d="M29.56 15.995l-11.23-6.429v12.858l11.23-6.429z"></path>
</symbol>
</defs>
</svg>
